<svg version="1.0" xmlns="http://www.w3.org/2000/svg" width="444.439" height="561.259" xml:space="preserve"><path fill-rule="evenodd" clip-rule="evenodd" fill="#DFB774" d="M437.036 91.51c-28.342-1.758-52.96-7.414-73.175-16.806-15.964-7.418-29.232-17.181-39.439-29.016-17.373-20.147-19.966-39.706-19.989-39.901l-.715-5.763L140.723 0l-.715 5.788c-.025.195-2.619 19.753-19.992 39.901-10.204 11.834-23.474 21.598-39.441 29.016-20.212 9.392-44.828 15.047-73.17 16.805L0 91.972l1.352 7.295c.151.813 15.485 82.466 49.586 172.979 20.082 53.294 42.661 99.252 67.115 136.594 30.857 47.124 64.872 80.692 101.105 99.773l3.062 1.611 3.062-1.611c36.231-19.081 70.251-52.649 101.106-99.773 24.451-37.342 47.033-83.3 67.113-136.594 34.102-90.513 49.436-172.166 49.588-172.979l1.351-7.295-7.404-.462z"/><path fill-rule="evenodd" clip-rule="evenodd" fill="#005EA8" d="M245.681 418.979c.155-.832.311-1.667.466-2.52 7.714-41.666 15.568-98.566 23.341-169.116 11.42-103.6 19.327-206.805 21.354-234.207-11.616-.003-125.628-.003-137.244 0 2.029 27.401 9.936 130.607 21.353 234.207 7.774 70.55 15.627 127.45 23.341 169.116.158.855.315 1.696.472 2.531a72.453 72.453 0 0 1 23.457-3.882 72.727 72.727 0 0 1 23.46 3.871z"/><path fill-rule="evenodd" clip-rule="evenodd" fill="#DFB774" d="M195.639 341.67H214.2c.497 3.064 1.443 5.317 2.793 6.668 1.352 1.354 3.334 2.027 5.947 2.027 2.208 0 3.966-.539 5.271-1.667 1.263-1.081 1.893-2.613 1.893-4.55 0-3.108-2.657-5.587-8.019-7.523-1.037-.404-1.847-.677-2.388-.902-4.417-1.62-7.885-3.062-10.497-4.415-2.569-1.351-4.46-2.569-5.676-3.738-2.254-2.388-3.965-5.183-5.137-8.47-1.126-3.29-1.711-7.028-1.711-11.265 0-8.47 2.208-15.138 6.667-19.957 4.46-4.775 10.542-7.21 18.248-7.21 7.658 0 13.649 2.344 18.021 6.894 4.415 4.641 6.894 11.265 7.433 19.869h-18.108c-.272-2.522-1.037-4.371-2.3-5.631-1.262-1.219-3.019-1.849-5.316-1.849-2.027 0-3.56.498-4.551 1.441-.99.99-1.487 2.435-1.487 4.415 0 2.839 2.613 5.183 7.794 7.075.45.223.812.36 1.037.404.767.27 1.893.677 3.425 1.216 6.891 2.525 11.44 4.775 13.559 6.85 2.613 2.522 4.55 5.361 5.769 8.604 1.172 3.199 1.802 6.984 1.802 11.353 0 9.416-2.297 16.67-6.894 21.762-4.55 5.045-11.13 7.57-19.688 7.57-7.838 0-14.057-2.525-18.697-7.57-4.598-5.091-7.167-12.21-7.751-21.401zM194.197 250.033v-85.421h18.111s19.418 48.973 20.092 51.902c-.179-1.532-.495-51.902-.495-51.902h18.202v85.421h-18.202s-19.507-48.927-20.139-51.675c.226 1.487.542 51.675.542 51.675h-18.111zM194.197 131.723V46.304H213.3v28.968h17.706V46.304h19.101v85.419h-19.101V98.609H213.3v33.114h-19.103z"/><path fill-rule="evenodd" clip-rule="evenodd" fill="#FFF" d="M347.476 226.351c-.431 1.991-.858 3.973-1.286 5.941a1370.21 1370.21 0 0 0 50.054-7.482c7.6-23.199 13.849-44.859 18.817-63.52a1737.333 1737.333 0 0 1-56.045 7.78c-3.454 18.251-7.307 37.574-11.54 57.281zM153.114 162.867c-2.35-24.731-4.43-48.07-6.204-68.788-18.833-1.159-40.003-2.745-62.06-4.916a2858.672 2858.672 0 0 0 11.771 68.016 1761.43 1761.43 0 0 0 56.493 5.688zM359.587 89.164c-22.055 2.171-43.225 3.757-62.06 4.916a7408.202 7408.202 0 0 1-6.202 68.788c16.6-1.399 35.637-3.249 56.49-5.688a2840.693 2840.693 0 0 0 11.772-68.016z"/><path fill-rule="evenodd" clip-rule="evenodd" fill="#E32219" d="M112.144 234.034a1301.472 1301.472 0 0 0 48.674 4.937 5807.036 5807.036 0 0 1-6.428-62.814 1785.739 1785.739 0 0 1-55.22-5.458c3.85 20.153 8.185 41.563 12.974 63.335z"/><path fill-rule="evenodd" clip-rule="evenodd" fill="#FFF" d="M115.198 247.693c4.458 19.598 9.272 39.333 14.421 58.563a975.29 975.29 0 0 0 39.576 4.638 3922.157 3922.157 0 0 1-6.571-55.481c-.116-1.028-.229-2.057-.344-3.085a1243.053 1243.053 0 0 1-30.806-2.833 1288.037 1288.037 0 0 1-16.276-1.802z"/><path fill-rule="evenodd" clip-rule="evenodd" fill="#E32219" d="M152.35 380.087a623.312 623.312 0 0 0 27.091 3.929c-2.839-17.994-5.687-37.939-8.534-59.769a972.355 972.355 0 0 1-37.521-4.233c5.924 21.15 12.256 41.47 18.964 60.073z"/><path fill-rule="evenodd" clip-rule="evenodd" fill="#FFF" d="M181.645 397.613a600.697 600.697 0 0 1-23.934-3.243c5.533 14.133 11.303 27.009 17.29 38.165a73.473 73.473 0 0 1 11.439-8.001 1160.42 1160.42 0 0 1-4.795-26.921zM286.729 394.37a600.664 600.664 0 0 1-23.933 3.243 1160.426 1160.426 0 0 1-4.793 26.895 73.315 73.315 0 0 1 11.452 7.995c5.983-11.151 11.745-24.012 17.274-38.133z"/><path fill-rule="evenodd" clip-rule="evenodd" fill="#E32219" d="M311.054 320.014a971.47 971.47 0 0 1-37.521 4.233c-2.848 21.829-5.695 41.774-8.534 59.769a621.552 621.552 0 0 0 27.091-3.929c6.709-18.603 13.04-38.923 18.964-60.073z"/><path fill-rule="evenodd" clip-rule="evenodd" fill="#FFF" d="M329.241 247.693c-5.698.667-11.133 1.266-16.277 1.802a1240.848 1240.848 0 0 1-30.806 2.833l-.343 3.085a3925.647 3925.647 0 0 1-6.571 55.481 975.115 975.115 0 0 0 39.577-4.638c5.148-19.23 9.964-38.964 14.42-58.563z"/><path fill-rule="evenodd" clip-rule="evenodd" fill="#E32219" d="M345.27 170.698a1785.82 1785.82 0 0 1-55.222 5.458 5635.54 5635.54 0 0 1-6.428 62.814 1301.047 1301.047 0 0 0 48.674-4.937c4.79-21.771 9.126-43.181 12.976-63.335zM372.41 92.358a2876.49 2876.49 0 0 1-10.869 63.163 1707.948 1707.948 0 0 0 57.126-8.098c5.024-19.822 8.344-35.065 10.069-43.403-20.777-1.819-39.644-5.719-56.326-11.662zM313.866 53.565a108.564 108.564 0 0 1-11.657-16.652 7766.073 7766.073 0 0 1-3.56 43.935 1741.002 1741.002 0 0 0 43.146-3.224c-10.796-6.837-20.15-14.888-27.929-24.059zM142.23 36.913c-3 5.288-6.813 10.938-11.659 16.652-7.778 9.171-17.133 17.222-27.927 24.059a1740.282 1740.282 0 0 0 43.146 3.224 7590.51 7590.51 0 0 1-3.56-43.935zM72.031 92.358c-16.683 5.943-35.55 9.842-56.329 11.662 1.726 8.338 5.045 23.58 10.072 43.403a1710.142 1710.142 0 0 0 57.125 8.098 2839.388 2839.388 0 0 1-10.868-63.163z"/><path fill-rule="evenodd" clip-rule="evenodd" fill="#FFF" d="M96.964 226.351c-4.233-19.707-8.086-39.029-11.539-57.281a1737.38 1737.38 0 0 1-56.046-7.78c4.97 18.661 11.219 40.321 18.817 63.52a1369.886 1369.886 0 0 0 50.054 7.482c-.429-1.969-.858-3.951-1.286-5.941z"/><path fill-rule="evenodd" clip-rule="evenodd" fill="#E32219" d="M101.282 245.99a1388.146 1388.146 0 0 1-48.35-7.05 1019.757 1019.757 0 0 0 10.375 28.862 913.309 913.309 0 0 0 11.669 29.429 1040.205 1040.205 0 0 0 40.441 6.967c-4.766-18.095-9.478-37.503-14.135-58.208z"/><path fill-rule="evenodd" clip-rule="evenodd" fill="#FFF" d="M119.14 318.031a1043.538 1043.538 0 0 1-37.939-6.264c9.492 21.604 19.434 41.651 29.77 60.035a674.778 674.778 0 0 0 26.473 5.613c-6.178-17.707-12.28-37.499-18.304-59.384z"/><path fill-rule="evenodd" clip-rule="evenodd" fill="#E32219" d="M142.668 391.847a673.864 673.864 0 0 1-22.608-4.471c2.985 4.919 6 9.706 9.042 14.353 10.833 16.535 22.037 31.298 33.564 44.259a73.322 73.322 0 0 1 2.767-3.639c-7.68-13.755-15.273-30.598-22.765-50.502zM279.029 442.308a70.79 70.79 0 0 1 2.774 3.645c11.517-12.952 22.711-27.703 33.533-44.224a490.824 490.824 0 0 0 9.044-14.353 673.985 673.985 0 0 1-22.611 4.471c-7.482 19.884-15.067 36.715-22.74 50.461z"/><path fill-rule="evenodd" clip-rule="evenodd" fill="#FFF" d="M306.996 377.416c8.37-1.6 17.215-3.457 26.473-5.613 10.336-18.384 20.276-38.432 29.769-60.035a1046.085 1046.085 0 0 1-37.939 6.264c-6.022 21.884-12.127 41.676-18.303 59.384z"/><path fill-rule="evenodd" clip-rule="evenodd" fill="#E32219" d="M329.021 304.197a1040.532 1040.532 0 0 0 40.441-6.967 917.974 917.974 0 0 0 11.669-29.429c3.68-9.757 7.134-19.408 10.374-28.862a1384.674 1384.674 0 0 1-48.349 7.05c-4.657 20.706-9.368 40.114-14.135 58.208z"/><path fill-rule="evenodd" clip-rule="evenodd" fill="#FFF" d="M222.22 415.109c40.277 0 73.075 32.842 73.075 73.075s-32.798 73.075-73.075 73.075c-40.188 0-73.031-32.842-73.031-73.075s32.843-73.075 73.031-73.075z"/><path fill-rule="evenodd" clip-rule="evenodd" fill="#DFB774" d="M239.927 510.62c-4.146-7.254-8.968-15.589-17.978-20.273-23.643 6.393-41.662 6.571-72.737-.287a72.464 72.464 0 0 0 6.529 28.31c28.913 4.49 60.455 3.936 84.186-7.75z"/><path fill-rule="evenodd" clip-rule="evenodd" fill="#DFB774" d="M232.717 461.468c-4.236 7.207-7.568 17.391-7.479 25.5 17.519 17.432 26.794 31.767 37.279 62.124a73.805 73.805 0 0 0 19.837-19.474c-10.617-27.017-27.873-53.522-49.637-68.15z"/><path fill-rule="evenodd" clip-rule="evenodd" fill="#DFB774" d="M220.553 485.076c6.209-23.276 14.818-38.848 35.479-61.644a72.547 72.547 0 0 0-27.952-8.089c-17.679 22.485-31.781 49.632-33.478 75.41 8.336.044 18.336-1.939 25.951-5.677zM255.378 538.417c-4.189-9.908-7.975-16.983-13.649-24.554-25.074 12.091-53.902 12.738-83.684 9.117a73.806 73.806 0 0 0 23.748 25.992c26.251 1.828 50.355-3.252 73.585-10.555z"/><path fill-rule="evenodd" clip-rule="evenodd" fill="#DFB774" d="M250.693 435.335c-7.567 7.614-11.804 14.373-15.545 23.068 22.931 15.659 37.866 40.154 49.573 67.576a72.544 72.544 0 0 0 10.468-33.891c-11.422-23.246-26.765-40.434-44.496-56.753zM190.141 490.346c2.052-27.111 15.272-51.794 32.58-75.231-.168-.003-.334-.006-.501-.006a72.417 72.417 0 0 0-34.384 8.651c-13.424 20.813-20.367 41.997-25.402 64.693 10.363 2.749 18.337 3.021 27.707 1.893zM178.736 429.552c-17.244 12.853-28.676 33.12-29.495 55.998l8.914 1.418c2.94-21.152 11.48-39.055 20.581-57.416zM189.957 553.701a72.391 72.391 0 0 0 32.263 7.559 72.576 72.576 0 0 0 37.207-10.222l-3.328-8.563c-21.75 8.841-43.458 9.828-66.142 11.226z"/><path fill-rule="evenodd" clip-rule="evenodd" fill="#DFB774" d="M295.239 485.43c-.955-25.535-15.117-47.801-35.845-60.117l-6.855 7.907c18.006 13.998 31.699 32.942 42.7 52.21z"/></svg>