<svg xmlns="http://www.w3.org/2000/svg" width="480" height="633" viewBox="-0.352 -0.966 480 633" xml:space="preserve"><path fill="#FFF200" d="M438.245 121.097C455.765 88.313 466.473 47.731 467.734 0H252.851c1.017 14.396 1.368 29.035 1.368 45.478 0 44.42-9.63 78.056-24.325 104.175-23.796 42.305-54.027 69.634-80.747 85.052-54.465 31.429-91.116 90.265-91.116 157.672 0 100.466 81.445 181.91 181.91 181.91 100.469 0 181.91-81.444 181.91-181.91 0-73.913-44.107-137.486-107.418-165.95 44.812-19.087 94.029-49.594 123.812-105.33z"/><path fill="#E50009" d="M329.707 234.153a321.157 321.157 0 0 1-14.502 5.478c56.278 27.789 95.013 85.73 95.013 152.746 0 94.032-76.247 170.276-170.276 170.276-94.054 0-170.276-76.244-170.276-170.276 0-56.926 27.927-107.324 70.831-138.238 27.977-20.161 46.565-22.873 79.351-43.144 33.283-20.572 86.237-64.083 96.5-188.256h-62.409c.195 7.284.282 14.792.282 22.739 0 44.42-9.627 78.056-24.325 104.175-23.796 42.305-54.026 69.634-80.743 85.052-54.467 31.426-91.12 90.265-91.12 157.672 0 100.456 81.432 181.91 181.91 181.91 100.456 0 181.91-81.454 181.91-181.91-.002-67.821-37.127-126.944-92.146-158.224z"/><path d="m19.744 392.723-.054 14.597-18.826-.07.019-4.863 4.38-.715c-2.133-1.86-5.288-4.545-5.263-10.92.031-8.415 6.092-16.029 18.352-15.984 9.535.034 18.517 5.372 18.424 17.141-.04 10.705-7.013 14.91-11.83 15.283l.026-7.297c1.364.005 5.751-2.462 5.77-7.618.019-5.206-3.563-10.036-12.516-10.069-9.535-.032-12.034 5.161-12.053 10.127-.006 1.604.608 6.958 7.655 8.49l.031-8.122 5.885.02zM18.036 418.883l-15.494 2.309-1.077-7.218 34.55-5.151 1.076 7.223-13.088 1.949 2.008 13.472 13.088-1.949 1.076 7.218-34.548 5.151-1.076-7.218 15.494-2.313-2.009-13.473zM37.085 454.089l.028.096-11.959 8.158-2.59-8.515 14.521.261zm-20.859-.367 3.751 12.332-6.238 4.238 2.307 7.585 29.839-21.938-2.448-8.052-37.043-1.756 2.238 7.354 7.594.237zM58.422 486.074l2.906 6.159-31.59 14.906-3.115-6.597 16.445-23.521-.041-.091L20.5 487.562l-2.908-6.16 31.592-14.905 3.281 6.952-16.084 22.921.041.087 22-10.383zM63.134 509.346l.053.078-9.12 11.246-4.923-7.416 13.99-3.908zm-20.092 5.618 7.127 10.746-4.763 5.846 4.383 6.605 22.305-29.568-4.654-7.009-35.992 8.93 4.25 6.405 7.344-1.955zM65.941 556.299l-5.089-5.23 25.031-24.363 17.34 17.814-4.429 4.31-12.248-12.585-5.649 5.495 10.723 11.019-4.427 4.308-10.723-11.013-10.529 10.245zM97.053 561.975c5.979-7.738 11.855-6.271 14.974-3.858 3.117 2.408 6.018 7.725.036 15.463-5.98 7.734-11.855 6.269-14.974 3.858-3.118-2.413-6.018-7.73-.036-15.463zm-5.773-4.467c-10.029 12.972-1.626 21.992 2.03 24.817 3.657 2.826 14.499 8.689 24.525-4.284 10.029-12.968 1.625-21.987-2.03-24.813-3.656-2.828-14.499-8.687-24.525 4.28zM126.291 582.846c4.653-8.602 10.689-8.101 14.155-6.227 3.464 1.876 7.185 6.657 2.53 15.259-4.655 8.596-10.691 8.097-14.155 6.221-3.466-1.875-7.186-6.655-2.53-15.253zm-6.419-3.474c-7.804 14.419 1.942 21.962 6.007 24.159 4.063 2.202 15.709 6.239 23.513-8.18 7.806-14.418-1.941-21.962-6.007-24.163-4.062-2.202-15.708-6.234-23.513 8.184z"/><path d="m158.598 617.231-6.823-2.591 10.2-26.882-9.872-3.743 2.191-5.775 26.565 10.076-2.192 5.78-9.87-3.747-10.199 26.882z"/><path d="m182.927 608.802 9.056 2.083c2.56.592 4.858 2.318 4.173 5.305-.796 3.458-3.136 4.52-6.598 3.722l-8.724-2.003 2.093-9.107zm-10.272 13.416 14.415 3.312c6.969 1.604 9.091.845 11.47-.605 2.207-1.339 3.933-3.641 4.553-6.341.774-3.369.446-6.938-3.366-9.462 1.585-.385 4.653-1.128 5.774-6.011.806-3.508-.127-9.214-8.473-11.13l-16.548-3.804-7.825 34.041zm13.3-26.593 8.156 1.875c3.224.74 5.019 2.049 4.376 4.851-.622 2.701-3.101 3.279-5.897 2.636l-8.346-1.917 1.711-7.445zM222.447 603.639l.097.005 3.196 14.125-8.874-.723 5.581-13.407zm-8.011 19.26 12.85 1.045 1.647 7.358 7.905.645-9.438-35.814-8.388-.682-15.245 33.808 7.662.624 3.007-6.984zM246.063 625.028l17.353-.732.269 6.318-24.646 1.04-1.473-34.901 7.291-.307 1.206 28.582zM271.97 622.919l17.165-2.651.968 6.249-24.374 3.769-5.344-34.521 7.216-1.115 4.369 28.269zM307.467 593.374l.092-.034 8.507 11.722-8.44 2.833-.159-14.521zm.236 20.857 12.222-4.106 4.415 6.114 7.516-2.528-22.798-29.187-7.977 2.681-.678 37.079 7.288-2.45.012-7.603zM336.709 599.314c.926 1.71 3.466 4.564 9.147 1.678 3.077-1.567 6.131-4.045 4.453-7.342-1.234-2.43-3.904-1.889-7.598-.992l-3.738.918c-5.623 1.388-11.056 2.73-14.539-4.124-1.764-3.47-3.008-10.529 7.093-15.67 9.545-4.85 15.279.092 17.262 3.888l-6.245 3.173c-.877-1.297-3.075-4.33-8.756-1.441-2.471 1.26-4.958 3.669-3.523 6.485 1.235 2.43 3.494 1.938 4.948 1.579l8.537-1.996c4.778-1.119 9.563-1.367 12.41 4.228 4.762 9.365-4.36 15.041-7.095 16.429-11.36 5.777-16.64.225-18.603-3.639l6.247-3.174zM364.08 584.106c1.151 1.569 4.06 4.05 9.294.409 2.836-1.971 5.521-4.847 3.409-7.883-1.559-2.235-4.132-1.334-7.665.059l-3.576 1.421c-5.384 2.145-10.576 4.214-14.968-2.096-2.223-3.196-4.421-10.021 4.887-16.491 8.787-6.115 15.142-2 17.624 1.487l-5.75 3.999c-1.049-1.164-3.639-3.867-8.87-.231-2.277 1.586-4.409 4.313-2.603 6.907 1.554 2.24 3.727 1.438 5.119.886l8.184-3.146c4.58-1.759 9.286-2.665 12.868 2.488 5.999 8.629-2.26 15.496-4.774 17.248-10.465 7.278-16.455 2.495-18.93-1.058l5.751-3.999zM385.379 559.772c-6.721-7.101-4.369-12.678-1.507-15.388 2.859-2.71 8.561-4.76 15.286 2.338 6.721 7.101 4.371 12.679 1.509 15.389-2.862 2.71-8.561 4.76-15.288-2.339zm-5.295 5.016c11.274 11.903 21.475 4.986 24.833 1.811 3.354-3.177 10.813-12.989-.463-24.891-11.274-11.907-21.478-4.987-24.833-1.811s-10.813 12.989.463 24.891zM415.988 517.001c-2.011-.813-5.816-2.329-9.497 2.453-2.137 2.777-3.43 8.289 4.396 14.308 4.975 3.83 10.961 5.304 14.729.409 2.463-3.202 2.371-6.833-.488-10.139l4.45-5.784c5.128 5.788 6.301 12.951.962 19.892-5.667 7.367-14.706 8.822-24.267 1.463-9.68-7.447-10.312-16.834-4.82-23.97 6.378-8.287 14.665-7.25 18.986-4.416l-4.451 5.784zM445.016 515.274l-3.854 6.198-29.668-18.438 3.854-6.198 29.668 18.438zM430.379 485.574l.045-.086 14.312 2.194-3.922 7.993-10.435-10.101zm14.997 14.502 5.676-11.577 7.449 1.161 3.49-7.117-36.781-4.325-3.706 7.556 25.884 26.56 3.385-6.903-5.397-5.355zM466.734 468.137l-2.422 6.881-27.125-9.524-3.5 9.959-5.829-2.049 9.414-26.805 5.832 2.045-3.501 9.961 27.131 9.532zM472.485 447.992l-1.802 7.073-33.853-8.618 1.802-7.073 33.853 8.618zM457.901 433.479c-9.68-1.389-11.304-7.223-10.742-11.126.558-3.9 3.752-9.044 13.432-7.66 9.68 1.39 11.303 7.223 10.741 11.126-.557 3.9-3.751 9.043-13.431 7.66zm-1.037 7.222c16.232 2.325 19.93-9.433 20.587-14.006.653-4.578.404-16.901-15.823-19.223-16.231-2.327-19.931 9.432-20.586 14.005-.653 4.577-.405 16.898 15.822 19.224zM443.926 382.357l-.088-6.809 34.931-.429.086 7.3-24.73 14.559v.096l24.909-.307.083 6.813-34.927.426-.095-7.684 24.151-14.163v-.099l-24.32.297z"/><path fill="#FFF" d="M149.517 462.911c-11.815-.314-21.083-1.575-28.552-3.78 19.194 34.137 52.627 59.177 92.268 67.046-4.398-6.408-8.455-14.807-12.394-25.907-20.436-7.433-38.162-20.529-51.322-37.359zM354.601 388.5c9.341 7.176 16.079 13.625 20.817 19.785.607-5.223.955-10.522.955-15.909 0-35.703-13.729-68.188-36.178-92.504-.215 7.769-1.876 16.948-5.219 28.246 11.763 17.347 18.883 38.07 19.625 60.382zM239.942 277.619a114.34 114.34 0 0 1 31.752 4.503c9.721-6.67 17.938-11.084 25.267-13.688-17.354-7.999-36.656-12.491-57.019-12.491s-39.667 4.492-57.021 12.491c7.325 2.604 15.544 7.018 25.259 13.69a114.364 114.364 0 0 1 31.762-4.505zM125.281 388.504c.746-22.313 7.86-43.035 19.622-60.378-3.342-11.304-5.001-20.486-5.214-28.257-22.449 24.314-36.179 56.804-36.179 92.507 0 5.387.346 10.687.954 15.909 4.738-6.16 11.476-12.609 20.817-19.781zM279.044 500.269c-3.941 11.105-7.998 19.499-12.394 25.907 39.636-7.869 73.072-32.909 92.265-67.046-7.47 2.201-16.732 3.466-28.543 3.775-13.162 16.836-30.892 29.932-51.328 37.364z"/><path d="M354.601 388.5c-.742-22.313-7.862-43.035-19.624-60.383 3.343-11.297 5.004-20.477 5.219-28.246a136.798 136.798 0 0 0-43.235-31.438c-7.329 2.604-15.546 7.018-25.267 13.688a114.345 114.345 0 0 0-31.752-4.503 114.369 114.369 0 0 0-31.762 4.505c-9.714-6.672-17.934-11.086-25.259-13.69a136.758 136.758 0 0 0-43.232 31.436c.212 7.771 1.872 16.953 5.214 28.257-11.762 17.343-18.875 38.065-19.622 60.378-9.341 7.172-16.079 13.621-20.817 19.781a135.467 135.467 0 0 0 16.502 50.845c7.469 2.205 16.736 3.466 28.552 3.78 13.161 16.83 30.886 29.927 51.322 37.358 3.939 11.101 7.996 19.499 12.394 25.907 8.638 1.717 17.566 2.633 26.709 2.633s18.07-.916 26.708-2.633c4.396-6.408 8.452-14.802 12.394-25.907 20.437-7.432 38.166-20.528 51.328-37.363 11.811-.31 21.073-1.574 28.543-3.775a135.482 135.482 0 0 0 16.504-50.845c-4.74-6.16-11.478-12.609-20.819-19.785z"/><path fill="#118E34" d="M385.388 75.091c-16.932 82.876-80.693 138.783-128.525 152.823-18.095 5.313-36.203 7.09-57.004 12.564-67.332 17.719-116.973 79.011-116.973 151.898 0 86.733 70.306 157.057 157.056 157.057 86.74 0 157.056-70.323 157.056-157.057 0-66.945-41.875-124.082-100.862-146.693-7.297 1.948-15.229 3.645-23.077 5.069 64.356 14.989 112.306 72.706 112.306 141.625 0 80.313-65.109 145.423-145.422 145.423-80.322 0-145.422-65.11-145.422-145.423 0-77.712 60.958-141.192 137.671-145.223 10.609-.557 29.613-1.084 55.343-10.25 50.625-18.029 114.8-48.608 150.711-115.809 7.448-13.935 13.638-29.301 18.421-46.004h-71.279z"/><path d="m356.279 18.143 5.601 17.244h18.138l-14.667 10.66 5.599 17.247-14.671-10.656-14.67 10.656 5.602-17.247-14.67-10.66h18.136z"/><path fill="#FFF" d="m199.082 402.87 13.972-43.004-26.047-35.847-37.465 6.727c-11.436 16.719-18.333 36.76-18.976 58.346l26.371 27.47 42.145-13.692zM279.159 407.902l-36.573 26.568v44.325l34.311 16.599c19.789-7.117 36.938-19.792 49.591-36.128l-5.175-37.669-42.154-13.695zM158.571 421.597l-5.177 37.674c12.655 16.331 29.803 29.006 49.592 36.123l34.311-16.599V434.47l-36.584-26.568-42.142 13.695zM292.875 324.019l-26.048 35.852 13.966 42.999 42.154 13.695 26.366-27.474c-.64-21.59-7.54-41.631-18.976-58.351l-37.462-6.721zM288.595 320.909l-17.991-33.588a109.093 109.093 0 0 0-30.663-4.402 109.098 109.098 0 0 0-30.666 4.402l-17.987 33.588 26.046 35.851h45.218l26.043-35.851z"/></svg>