<svg xmlns="http://www.w3.org/2000/svg" width="45.6" height="56.6pt" viewBox="0 0 34.2 56.6"><defs><clipPath id="a"><path d="M0 0h34v56.602H0zm0 0"/></clipPath><clipPath id="b"><path d="M0 0h34.2v56.602H0zm0 0"/></clipPath></defs><g clip-path="url(#a)"><path style="stroke:none;fill-rule:evenodd;fill:#fff;fill-opacity:1" d="M.352.246H33.89v39.172c0 9.227-7.547 16.773-16.77 16.773-9.223 0-16.77-7.546-16.77-16.773zm0 0"/></g><g clip-path="url(#b)"><path style="stroke:none;fill-rule:evenodd;fill:#1b1918;fill-opacity:1" d="M.352-.086h33.875v39.508h-.004c0 4.703-1.926 8.98-5.024 12.078-3.097 3.098-7.37 5.023-12.078 5.023-4.707 0-8.98-1.925-12.078-5.023C1.941 48.398.02 44.125.02 39.422V-.086zm33.207.668H.684v38.84c0 4.516 1.847 8.625 4.828 11.605 2.98 2.98 7.09 4.832 11.61 4.832v-.004.004c4.519 0 8.624-1.851 11.608-4.832 2.98-2.98 4.829-7.09 4.829-11.605zm0 0"/></g><path style="stroke:none;fill-rule:evenodd;fill:#fff;fill-opacity:1" d="M4.207 12.977h25.824V7.07H4.207zm0 0"/><path style="stroke:none;fill-rule:evenodd;fill:#e30016;fill-opacity:1" d="M2.27 18.633h29.703v-5.656H2.27zm0 0"/><path style="stroke:none;fill-rule:evenodd;fill:#71a21c;fill-opacity:1" d="M2.27 7.07h29.703V1.414H2.27zm0 0"/><path style="stroke:none;fill-rule:evenodd;fill:#fff;fill-opacity:1" d="M8.168 13.332H9.75v-.117H8.168zM8.406 13.895h.11v-.11h-.11zM9.441 13.895h.313v-.114H9.44zM9.926 13.895h.105v-.68h-.105zm0 0"/><path style="stroke:none;fill-rule:evenodd;fill:#fff;fill-opacity:1" d="M9.957 13.895h.598v-.114h-.598zM9.441 13.895h.106v-.38H9.44zm0 0"/><path style="stroke:none;fill-rule:evenodd;fill:#fff;fill-opacity:1" d="M10.469 13.895h.101v-.68h-.101zM10.195 13.895h.11v-.68h-.11zM8.176 13.602h.574v-.114h-.574zM9.441 13.602h.579v-.114H9.44zm0 0"/><path style="stroke:none;fill-rule:evenodd;fill:#fff;fill-opacity:1" d="M9.441 13.895h.106v-.38H9.44zm0 0"/><path style="stroke:none;fill-rule:evenodd;fill:#fff;fill-opacity:1" d="M9.441 13.895h.106v-.38H9.44zm0 0"/><path style="stroke:none;fill-rule:evenodd;fill:#fff;fill-opacity:1" d="M9.441 13.895h.106v-.38H9.44zM8.176 13.895h.105v-.38h-.105zM9.102 13.895h.109v-.38H9.1zM8.645 13.895h.105v-.38h-.105zm0 0"/><path style="stroke:none;fill-rule:evenodd;fill:#fff;fill-opacity:1" d="M8.691 13.895h.489v-.114H8.69zM8.902 13.602h.309v-.114h-.309zM5.574 13.332h1.582v-.117H5.574zM5.813 13.895h.105v-.11h-.106zM6.844 13.895h.312v-.114h-.312zM7.328 13.895h.11v-.68h-.11zm0 0"/><path style="stroke:none;fill-rule:evenodd;fill:#fff;fill-opacity:1" d="M7.36 13.895h.6v-.114h-.6zM6.844 13.895h.11v-.38h-.11zm0 0"/><path style="stroke:none;fill-rule:evenodd;fill:#fff;fill-opacity:1" d="M7.871 13.895h.11v-.68h-.11zM7.598 13.895h.105v-.68h-.105zM5.578 13.602h.578v-.114h-.578zM6.844 13.602h.578v-.114h-.578zm0 0"/><path style="stroke:none;fill-rule:evenodd;fill:#fff;fill-opacity:1" d="M6.844 13.895h.11v-.38h-.11zm0 0"/><path style="stroke:none;fill-rule:evenodd;fill:#fff;fill-opacity:1" d="M6.844 13.895h.11v-.38h-.11zm0 0"/><path style="stroke:none;fill-rule:evenodd;fill:#fff;fill-opacity:1" d="M6.844 13.895h.11v-.38h-.11zM5.578 13.895h.11v-.38h-.11zM6.508 13.895h.101v-.38h-.101zM6.043 13.895h.11v-.38h-.11zm0 0"/><path style="stroke:none;fill-rule:evenodd;fill:#fff;fill-opacity:1" d="M6.094 13.895h.488v-.114h-.488zM6.305 13.602h.308v-.114h-.308zM10.746 13.332h1.582v-.117h-1.582zM10.984 13.895h.102v-.11h-.102zM12.016 13.895h.316v-.114h-.316zM12.504 13.895h.101v-.68h-.101zm0 0"/><path style="stroke:none;fill-rule:evenodd;fill:#fff;fill-opacity:1" d="M12.531 13.895h.602v-.114h-.602zM12.016 13.895h.109v-.38h-.11zm0 0"/><path style="stroke:none;fill-rule:evenodd;fill:#fff;fill-opacity:1" d="M13.04 13.895h.108v-.68h-.109zM12.77 13.895h.109v-.68h-.11zM10.746 13.602h.578v-.114h-.578zM12.016 13.602h.578v-.114h-.578zm0 0"/><path style="stroke:none;fill-rule:evenodd;fill:#fff;fill-opacity:1" d="M12.016 13.895h.109v-.38h-.11zm0 0"/><path style="stroke:none;fill-rule:evenodd;fill:#fff;fill-opacity:1" d="M12.016 13.895h.109v-.38h-.11zm0 0"/><path style="stroke:none;fill-rule:evenodd;fill:#fff;fill-opacity:1" d="M12.016 13.895h.109v-.38h-.11zM10.746 13.895h.11v-.38h-.11zM11.68 13.895h.101v-.38h-.101zM11.219 13.895h.11v-.38h-.11zm0 0"/><path style="stroke:none;fill-rule:evenodd;fill:#fff;fill-opacity:1" d="M11.266 13.895h.488v-.114h-.488zM11.477 13.602h.308v-.114h-.308zM28.934 13.332h1.578v-.117h-1.578zM29.164 13.895h.11v-.11h-.11zM30.203 13.895h.317v-.114h-.317zM30.688 13.895h.105v-.68h-.105zm0 0"/><path style="stroke:none;fill-rule:evenodd;fill:#fff;fill-opacity:1" d="M30.719 13.895h.597v-.114h-.597zM30.203 13.895h.11v-.38h-.11zm0 0"/><path style="stroke:none;fill-rule:evenodd;fill:#fff;fill-opacity:1" d="M31.227 13.895h.109v-.68h-.11zM30.957 13.895h.105v-.68h-.105zM28.934 13.602h.578v-.114h-.578zM30.203 13.602h.574v-.114h-.574zm0 0"/><path style="stroke:none;fill-rule:evenodd;fill:#fff;fill-opacity:1" d="M30.203 13.895h.11v-.38h-.11zm0 0"/><path style="stroke:none;fill-rule:evenodd;fill:#fff;fill-opacity:1" d="M30.203 13.895h.11v-.38h-.11zm0 0"/><path style="stroke:none;fill-rule:evenodd;fill:#fff;fill-opacity:1" d="M30.203 13.895h.11v-.38h-.11zM28.934 13.895h.105v-.38h-.105zM29.863 13.895h.11v-.38h-.11zM29.402 13.895h.11v-.38h-.11zm0 0"/><path style="stroke:none;fill-rule:evenodd;fill:#fff;fill-opacity:1" d="M29.453 13.895h.488v-.114h-.488zM29.664 13.602h.309v-.114h-.309zM13.34 13.332h1.582v-.117H13.34zM13.574 13.895h.11v-.11h-.11zM14.61 13.895h.312v-.114h-.313zM15.094 13.895h.11v-.68h-.11zm0 0"/><path style="stroke:none;fill-rule:evenodd;fill:#fff;fill-opacity:1" d="M15.121 13.895h.602v-.114h-.602zM14.61 13.895h.109v-.38h-.11zm0 0"/><path style="stroke:none;fill-rule:evenodd;fill:#fff;fill-opacity:1" d="M15.633 13.895h.105v-.68h-.105zM15.363 13.895h.11v-.68h-.11zM13.344 13.602h.574v-.114h-.574zM14.61 13.602h.578v-.114h-.579zm0 0"/><path style="stroke:none;fill-rule:evenodd;fill:#fff;fill-opacity:1" d="M14.61 13.895h.109v-.38h-.11zm0 0"/><path style="stroke:none;fill-rule:evenodd;fill:#fff;fill-opacity:1" d="M14.61 13.895h.109v-.38h-.11zm0 0"/><path style="stroke:none;fill-rule:evenodd;fill:#fff;fill-opacity:1" d="M14.61 13.895h.109v-.38h-.11zM13.344 13.895h.101v-.38h-.101zM14.27 13.895h.109v-.38h-.11zM13.809 13.895h.105v-.38h-.105zm0 0"/><path style="stroke:none;fill-rule:evenodd;fill:#fff;fill-opacity:1" d="M13.86 13.895h.488v-.114h-.489zM14.07 13.602h.309v-.114h-.309zM15.941 13.332h1.582v-.117h-1.582zM16.172 13.895h.11v-.11h-.11zM17.21 13.895h.313v-.114h-.312zM17.695 13.895h.11v-.68h-.11zm0 0"/><path style="stroke:none;fill-rule:evenodd;fill:#fff;fill-opacity:1" d="M17.727 13.895h.597v-.114h-.597zM17.21 13.895h.106v-.38h-.105zm0 0"/><path style="stroke:none;fill-rule:evenodd;fill:#fff;fill-opacity:1" d="M18.234 13.895h.11v-.68h-.11zM17.965 13.895h.105v-.68h-.105zM15.945 13.602h.575v-.114h-.575zM17.21 13.602h.571v-.114h-.57zm0 0"/><path style="stroke:none;fill-rule:evenodd;fill:#fff;fill-opacity:1" d="M17.21 13.895h.106v-.38h-.105zm0 0"/><path style="stroke:none;fill-rule:evenodd;fill:#fff;fill-opacity:1" d="M17.21 13.895h.106v-.38h-.105zm0 0"/><path style="stroke:none;fill-rule:evenodd;fill:#fff;fill-opacity:1" d="M17.21 13.895h.106v-.38h-.105zM15.945 13.895h.102v-.38h-.102zM16.871 13.895h.11v-.38h-.11zM16.41 13.895h.11v-.38h-.11zm0 0"/><path style="stroke:none;fill-rule:evenodd;fill:#fff;fill-opacity:1" d="M16.46 13.895h.485v-.114h-.484zM16.668 13.602h.312v-.114h-.312zM18.559 13.332h1.578v-.117h-1.578zM18.79 13.895h.108v-.11h-.109zM19.828 13.895h.313v-.114h-.313zM20.313 13.895h.105v-.68h-.105zm0 0"/><path style="stroke:none;fill-rule:evenodd;fill:#fff;fill-opacity:1" d="M20.344 13.895h.597v-.114h-.597zM19.828 13.895h.106v-.38h-.106zm0 0"/><path style="stroke:none;fill-rule:evenodd;fill:#fff;fill-opacity:1" d="M20.852 13.895h.109v-.68h-.11zM20.582 13.895h.105v-.68h-.105zM18.559 13.602h.578v-.114h-.578zM19.828 13.602h.574v-.114h-.574zm0 0"/><path style="stroke:none;fill-rule:evenodd;fill:#fff;fill-opacity:1" d="M19.828 13.895h.106v-.38h-.106zm0 0"/><path style="stroke:none;fill-rule:evenodd;fill:#fff;fill-opacity:1" d="M19.828 13.895h.106v-.38h-.106zm0 0"/><path style="stroke:none;fill-rule:evenodd;fill:#fff;fill-opacity:1" d="M19.828 13.895h.106v-.38h-.106zM18.559 13.895h.105v-.38h-.105zM19.488 13.895h.11v-.38h-.11zM19.027 13.895h.11v-.38h-.11zm0 0"/><path style="stroke:none;fill-rule:evenodd;fill:#fff;fill-opacity:1" d="M19.078 13.895h.488v-.114h-.488zM19.29 13.602h.308v-.114h-.309zM21.16 13.332h1.578v-.117H21.16zM21.395 13.895h.109v-.11h-.11zM22.43 13.895h.312v-.114h-.312zM22.914 13.895h.11v-.68h-.11zm0 0"/><path style="stroke:none;fill-rule:evenodd;fill:#fff;fill-opacity:1" d="M22.945 13.895h.598v-.114h-.598zM22.43 13.895h.101v-.38h-.101zm0 0"/><path style="stroke:none;fill-rule:evenodd;fill:#fff;fill-opacity:1" d="M23.453 13.895h.11v-.68h-.11zM23.184 13.895h.105v-.68h-.105zM21.16 13.602h.578v-.114h-.578zM22.43 13.602H23v-.114h-.57zm0 0"/><path style="stroke:none;fill-rule:evenodd;fill:#fff;fill-opacity:1" d="M22.43 13.895h.101v-.38h-.101zm0 0"/><path style="stroke:none;fill-rule:evenodd;fill:#fff;fill-opacity:1" d="M22.43 13.895h.101v-.38h-.101zm0 0"/><path style="stroke:none;fill-rule:evenodd;fill:#fff;fill-opacity:1" d="M22.43 13.895h.101v-.38h-.101zM21.16 13.895h.11v-.38h-.11zM22.09 13.895h.105v-.38h-.105zM21.629 13.895h.105v-.38h-.105zm0 0"/><path style="stroke:none;fill-rule:evenodd;fill:#fff;fill-opacity:1" d="M21.68 13.895h.484v-.114h-.484zM21.89 13.602h.31v-.114h-.31zM23.762 13.332h1.578v-.117h-1.578zM23.996 13.895h.11v-.11h-.11zM25.031 13.895h.313v-.114h-.313zM25.516 13.895h.109v-.68h-.11zm0 0"/><path style="stroke:none;fill-rule:evenodd;fill:#fff;fill-opacity:1" d="M25.543 13.895h.602v-.114h-.602zM25.031 13.895h.106v-.38h-.106zm0 0"/><path style="stroke:none;fill-rule:evenodd;fill:#fff;fill-opacity:1" d="M26.055 13.895h.105v-.68h-.105zM25.785 13.895h.106v-.68h-.106zM23.762 13.602h.578v-.114h-.578zM25.031 13.602h.574v-.114h-.574zm0 0"/><path style="stroke:none;fill-rule:evenodd;fill:#fff;fill-opacity:1" d="M25.031 13.895h.106v-.38h-.106zm0 0"/><path style="stroke:none;fill-rule:evenodd;fill:#fff;fill-opacity:1" d="M25.031 13.895h.106v-.38h-.106zm0 0"/><path style="stroke:none;fill-rule:evenodd;fill:#fff;fill-opacity:1" d="M25.031 13.895h.106v-.38h-.106zM23.762 13.895h.11v-.38h-.11zM24.691 13.895h.106v-.38h-.106zM24.23 13.895h.106v-.38h-.106zm0 0"/><path style="stroke:none;fill-rule:evenodd;fill:#fff;fill-opacity:1" d="M24.281 13.895h.489v-.114h-.489zM24.492 13.602h.309v-.114h-.309zM26.379 13.332h1.578v-.117h-1.578zM26.613 13.895h.11v-.11h-.11zM27.645 13.895h.316v-.114h-.316zM28.133 13.895h.105v-.68h-.105zm0 0"/><path style="stroke:none;fill-rule:evenodd;fill:#fff;fill-opacity:1" d="M28.164 13.895h.598v-.114h-.598zM27.645 13.895h.109v-.38h-.11zm0 0"/><path style="stroke:none;fill-rule:evenodd;fill:#fff;fill-opacity:1" d="M28.668 13.895h.11v-.68h-.11zM28.402 13.895h.106v-.68h-.106zM26.379 13.602h.578v-.114h-.578zM27.645 13.602h.578v-.114h-.578zm0 0"/><path style="stroke:none;fill-rule:evenodd;fill:#fff;fill-opacity:1" d="M27.645 13.895h.109v-.38h-.11zm0 0"/><path style="stroke:none;fill-rule:evenodd;fill:#fff;fill-opacity:1" d="M27.645 13.895h.109v-.38h-.11zm0 0"/><path style="stroke:none;fill-rule:evenodd;fill:#fff;fill-opacity:1" d="M27.645 13.895h.109v-.38h-.11zM26.379 13.895h.105v-.38h-.105zM27.309 13.895h.105v-.38h-.105zM26.848 13.895h.109v-.38h-.11zm0 0"/><path style="stroke:none;fill-rule:evenodd;fill:#fff;fill-opacity:1" d="M26.898 13.895h.485v-.114h-.485zM27.11 13.602h.308v-.114h-.309zM2.945 13.332h1.582v-.117H2.945zM3.184 13.895h.105v-.11h-.105zM4.21 13.895h.317v-.114h-.316zM4.703 13.895h.11v-.68h-.11zm0 0"/><path style="stroke:none;fill-rule:evenodd;fill:#fff;fill-opacity:1" d="M4.734 13.895h.598v-.114h-.598zM4.21 13.895h.11v-.38h-.11zm0 0"/><path style="stroke:none;fill-rule:evenodd;fill:#fff;fill-opacity:1" d="M5.242 13.895h.11v-.68h-.11zM4.969 13.895h.11v-.68h-.11zM2.95 13.602h.577v-.114H2.95zM4.21 13.602h.58v-.114h-.58zm0 0"/><path style="stroke:none;fill-rule:evenodd;fill:#fff;fill-opacity:1" d="M4.21 13.895h.11v-.38h-.11zm0 0"/><path style="stroke:none;fill-rule:evenodd;fill:#fff;fill-opacity:1" d="M4.21 13.895h.11v-.38h-.11zm0 0"/><path style="stroke:none;fill-rule:evenodd;fill:#fff;fill-opacity:1" d="M4.21 13.895h.11v-.38h-.11zM2.95 13.895h.109v-.38h-.11zM3.875 13.895h.11v-.38h-.11zM3.418 13.895h.105v-.38h-.105zm0 0"/><path style="stroke:none;fill-rule:evenodd;fill:#fff;fill-opacity:1" d="M3.46 13.895h.493v-.114h-.492zM3.676 13.602h.312v-.114h-.312zM8.168 6.352H9.75v-.114H8.168zM8.406 6.914h.11v-.11h-.11zM9.441 6.914h.313v-.113H9.44zM9.926 6.914h.105v-.676h-.105zm0 0"/><path style="stroke:none;fill-rule:evenodd;fill:#fff;fill-opacity:1" d="M9.957 6.914h.598v-.113h-.598zM9.441 6.914h.106v-.379H9.44zm0 0"/><path style="stroke:none;fill-rule:evenodd;fill:#fff;fill-opacity:1" d="M10.469 6.914h.101v-.676h-.101zM10.195 6.914h.11v-.676h-.11zM8.176 6.621h.574v-.113h-.574zM9.441 6.621h.579v-.113H9.44zm0 0"/><path style="stroke:none;fill-rule:evenodd;fill:#fff;fill-opacity:1" d="M9.441 6.914h.106v-.379H9.44zm0 0"/><path style="stroke:none;fill-rule:evenodd;fill:#fff;fill-opacity:1" d="M9.441 6.914h.106v-.379H9.44zm0 0"/><path style="stroke:none;fill-rule:evenodd;fill:#fff;fill-opacity:1" d="M9.441 6.914h.106v-.379H9.44zM8.176 6.914h.105v-.379h-.105zM9.102 6.914h.109v-.379H9.1zM8.645 6.914h.105v-.379h-.105zm0 0"/><path style="stroke:none;fill-rule:evenodd;fill:#fff;fill-opacity:1" d="M8.691 6.914h.489v-.113H8.69zM8.902 6.621h.309v-.113h-.309zM5.574 6.352h1.582v-.114H5.574zM5.813 6.914h.105v-.11h-.106zM6.844 6.914h.312v-.113h-.312zM7.328 6.914h.11v-.676h-.11zm0 0"/><path style="stroke:none;fill-rule:evenodd;fill:#fff;fill-opacity:1" d="M7.36 6.914h.6v-.113h-.6zM6.844 6.914h.11v-.379h-.11zm0 0"/><path style="stroke:none;fill-rule:evenodd;fill:#fff;fill-opacity:1" d="M7.871 6.914h.11v-.676h-.11zM7.598 6.914h.105v-.676h-.105zM5.578 6.621h.578v-.113h-.578zM6.844 6.621h.578v-.113h-.578zm0 0"/><path style="stroke:none;fill-rule:evenodd;fill:#fff;fill-opacity:1" d="M6.844 6.914h.11v-.379h-.11zm0 0"/><path style="stroke:none;fill-rule:evenodd;fill:#fff;fill-opacity:1" d="M6.844 6.914h.11v-.379h-.11zm0 0"/><path style="stroke:none;fill-rule:evenodd;fill:#fff;fill-opacity:1" d="M6.844 6.914h.11v-.379h-.11zM5.578 6.914h.11v-.379h-.11zM6.508 6.914h.101v-.379h-.101zM6.043 6.914h.11v-.379h-.11zm0 0"/><path style="stroke:none;fill-rule:evenodd;fill:#fff;fill-opacity:1" d="M6.094 6.914h.488v-.113h-.488zM6.305 6.621h.308v-.113h-.308zM10.746 6.352h1.582v-.114h-1.582zM10.984 6.914h.102v-.11h-.102zM12.016 6.914h.316v-.113h-.316zM12.504 6.914h.101v-.676h-.101zm0 0"/><path style="stroke:none;fill-rule:evenodd;fill:#fff;fill-opacity:1" d="M12.531 6.914h.602v-.113h-.602zM12.016 6.914h.109v-.379h-.11zm0 0"/><path style="stroke:none;fill-rule:evenodd;fill:#fff;fill-opacity:1" d="M13.04 6.914h.108v-.676h-.109zM12.77 6.914h.109v-.676h-.11zM10.746 6.621h.578v-.113h-.578zM12.016 6.621h.578v-.113h-.578zm0 0"/><path style="stroke:none;fill-rule:evenodd;fill:#fff;fill-opacity:1" d="M12.016 6.914h.109v-.379h-.11zm0 0"/><path style="stroke:none;fill-rule:evenodd;fill:#fff;fill-opacity:1" d="M12.016 6.914h.109v-.379h-.11zm0 0"/><path style="stroke:none;fill-rule:evenodd;fill:#fff;fill-opacity:1" d="M12.016 6.914h.109v-.379h-.11zM10.746 6.914h.11v-.379h-.11zM11.68 6.914h.101v-.379h-.101zM11.219 6.914h.11v-.379h-.11zm0 0"/><path style="stroke:none;fill-rule:evenodd;fill:#fff;fill-opacity:1" d="M11.266 6.914h.488v-.113h-.488zM11.477 6.621h.308v-.113h-.308zM28.934 6.352h1.578v-.114h-1.578zM29.164 6.914h.11v-.11h-.11zM30.203 6.914h.317v-.113h-.317zM30.688 6.914h.105v-.676h-.105zm0 0"/><path style="stroke:none;fill-rule:evenodd;fill:#fff;fill-opacity:1" d="M30.719 6.914h.597v-.113h-.597zM30.203 6.914h.11v-.379h-.11zm0 0"/><path style="stroke:none;fill-rule:evenodd;fill:#fff;fill-opacity:1" d="M31.227 6.914h.109v-.676h-.11zM30.957 6.914h.105v-.676h-.105zM28.934 6.621h.578v-.113h-.578zM30.203 6.621h.574v-.113h-.574zm0 0"/><path style="stroke:none;fill-rule:evenodd;fill:#fff;fill-opacity:1" d="M30.203 6.914h.11v-.379h-.11zm0 0"/><path style="stroke:none;fill-rule:evenodd;fill:#fff;fill-opacity:1" d="M30.203 6.914h.11v-.379h-.11zm0 0"/><path style="stroke:none;fill-rule:evenodd;fill:#fff;fill-opacity:1" d="M30.203 6.914h.11v-.379h-.11zM28.934 6.914h.105v-.379h-.105zM29.863 6.914h.11v-.379h-.11zM29.402 6.914h.11v-.379h-.11zm0 0"/><path style="stroke:none;fill-rule:evenodd;fill:#fff;fill-opacity:1" d="M29.453 6.914h.488v-.113h-.488zM29.664 6.621h.309v-.113h-.309zM13.34 6.352h1.582v-.114H13.34zM13.574 6.914h.11v-.11h-.11zM14.61 6.914h.312v-.113h-.313zM15.094 6.914h.11v-.676h-.11zm0 0"/><path style="stroke:none;fill-rule:evenodd;fill:#fff;fill-opacity:1" d="M15.121 6.914h.602v-.113h-.602zM14.61 6.914h.109v-.379h-.11zm0 0"/><path style="stroke:none;fill-rule:evenodd;fill:#fff;fill-opacity:1" d="M15.633 6.914h.105v-.676h-.105zM15.363 6.914h.11v-.676h-.11zM13.344 6.621h.574v-.113h-.574zM14.61 6.621h.578v-.113h-.579zm0 0"/><path style="stroke:none;fill-rule:evenodd;fill:#fff;fill-opacity:1" d="M14.61 6.914h.109v-.379h-.11zm0 0"/><path style="stroke:none;fill-rule:evenodd;fill:#fff;fill-opacity:1" d="M14.61 6.914h.109v-.379h-.11zm0 0"/><path style="stroke:none;fill-rule:evenodd;fill:#fff;fill-opacity:1" d="M14.61 6.914h.109v-.379h-.11zM13.344 6.914h.101v-.379h-.101zM14.27 6.914h.109v-.379h-.11zM13.809 6.914h.105v-.379h-.105zm0 0"/><path style="stroke:none;fill-rule:evenodd;fill:#fff;fill-opacity:1" d="M13.86 6.914h.488v-.113h-.489zM14.07 6.621h.309v-.113h-.309zM15.941 6.352h1.582v-.114h-1.582zM16.172 6.914h.11v-.11h-.11zM17.21 6.914h.313v-.113h-.312zM17.695 6.914h.11v-.676h-.11zm0 0"/><path style="stroke:none;fill-rule:evenodd;fill:#fff;fill-opacity:1" d="M17.727 6.914h.597v-.113h-.597zM17.21 6.914h.106v-.379h-.105zm0 0"/><path style="stroke:none;fill-rule:evenodd;fill:#fff;fill-opacity:1" d="M18.234 6.914h.11v-.676h-.11zM17.965 6.914h.105v-.676h-.105zM15.945 6.621h.575v-.113h-.575zM17.21 6.621h.571v-.113h-.57zm0 0"/><path style="stroke:none;fill-rule:evenodd;fill:#fff;fill-opacity:1" d="M17.21 6.914h.106v-.379h-.105zm0 0"/><path style="stroke:none;fill-rule:evenodd;fill:#fff;fill-opacity:1" d="M17.21 6.914h.106v-.379h-.105zm0 0"/><path style="stroke:none;fill-rule:evenodd;fill:#fff;fill-opacity:1" d="M17.21 6.914h.106v-.379h-.105zM15.945 6.914h.102v-.379h-.102zM16.871 6.914h.11v-.379h-.11zM16.41 6.914h.11v-.379h-.11zm0 0"/><path style="stroke:none;fill-rule:evenodd;fill:#fff;fill-opacity:1" d="M16.46 6.914h.485v-.113h-.484zM16.668 6.621h.312v-.113h-.312zM18.559 6.352h1.578v-.114h-1.578zM18.79 6.914h.108v-.11h-.109zM19.828 6.914h.313v-.113h-.313zM20.313 6.914h.105v-.676h-.105zm0 0"/><path style="stroke:none;fill-rule:evenodd;fill:#fff;fill-opacity:1" d="M20.344 6.914h.597v-.113h-.597zM19.828 6.914h.106v-.379h-.106zm0 0"/><path style="stroke:none;fill-rule:evenodd;fill:#fff;fill-opacity:1" d="M20.852 6.914h.109v-.676h-.11zM20.582 6.914h.105v-.676h-.105zM18.559 6.621h.578v-.113h-.578zM19.828 6.621h.574v-.113h-.574zm0 0"/><path style="stroke:none;fill-rule:evenodd;fill:#fff;fill-opacity:1" d="M19.828 6.914h.106v-.379h-.106zm0 0"/><path style="stroke:none;fill-rule:evenodd;fill:#fff;fill-opacity:1" d="M19.828 6.914h.106v-.379h-.106zm0 0"/><path style="stroke:none;fill-rule:evenodd;fill:#fff;fill-opacity:1" d="M19.828 6.914h.106v-.379h-.106zM18.559 6.914h.105v-.379h-.105zM19.488 6.914h.11v-.379h-.11zM19.027 6.914h.11v-.379h-.11zm0 0"/><path style="stroke:none;fill-rule:evenodd;fill:#fff;fill-opacity:1" d="M19.078 6.914h.488v-.113h-.488zM19.29 6.621h.308v-.113h-.309zM21.16 6.352h1.578v-.114H21.16zM21.395 6.914h.109v-.11h-.11zM22.43 6.914h.312v-.113h-.312zM22.914 6.914h.11v-.676h-.11zm0 0"/><path style="stroke:none;fill-rule:evenodd;fill:#fff;fill-opacity:1" d="M22.945 6.914h.598v-.113h-.598zM22.43 6.914h.101v-.379h-.101zm0 0"/><path style="stroke:none;fill-rule:evenodd;fill:#fff;fill-opacity:1" d="M23.453 6.914h.11v-.676h-.11zM23.184 6.914h.105v-.676h-.105zM21.16 6.621h.578v-.113h-.578zM22.43 6.621H23v-.113h-.57zm0 0"/><path style="stroke:none;fill-rule:evenodd;fill:#fff;fill-opacity:1" d="M22.43 6.914h.101v-.379h-.101zm0 0"/><path style="stroke:none;fill-rule:evenodd;fill:#fff;fill-opacity:1" d="M22.43 6.914h.101v-.379h-.101zm0 0"/><path style="stroke:none;fill-rule:evenodd;fill:#fff;fill-opacity:1" d="M22.43 6.914h.101v-.379h-.101zM21.16 6.914h.11v-.379h-.11zM22.09 6.914h.105v-.379h-.105zM21.629 6.914h.105v-.379h-.105zm0 0"/><path style="stroke:none;fill-rule:evenodd;fill:#fff;fill-opacity:1" d="M21.68 6.914h.484v-.113h-.484zM21.89 6.621h.31v-.113h-.31zM23.762 6.352h1.578v-.114h-1.578zM23.996 6.914h.11v-.11h-.11zM25.031 6.914h.313v-.113h-.313zM25.516 6.914h.109v-.676h-.11zm0 0"/><path style="stroke:none;fill-rule:evenodd;fill:#fff;fill-opacity:1" d="M25.543 6.914h.602v-.113h-.602zM25.031 6.914h.106v-.379h-.106zm0 0"/><path style="stroke:none;fill-rule:evenodd;fill:#fff;fill-opacity:1" d="M26.055 6.914h.105v-.676h-.105zM25.785 6.914h.106v-.676h-.106zM23.762 6.621h.578v-.113h-.578zM25.031 6.621h.574v-.113h-.574zm0 0"/><path style="stroke:none;fill-rule:evenodd;fill:#fff;fill-opacity:1" d="M25.031 6.914h.106v-.379h-.106zm0 0"/><path style="stroke:none;fill-rule:evenodd;fill:#fff;fill-opacity:1" d="M25.031 6.914h.106v-.379h-.106zm0 0"/><path style="stroke:none;fill-rule:evenodd;fill:#fff;fill-opacity:1" d="M25.031 6.914h.106v-.379h-.106zM23.762 6.914h.11v-.379h-.11zM24.691 6.914h.106v-.379h-.106zM24.23 6.914h.106v-.379h-.106zm0 0"/><path style="stroke:none;fill-rule:evenodd;fill:#fff;fill-opacity:1" d="M24.281 6.914h.489v-.113h-.489zM24.492 6.621h.309v-.113h-.309zM26.379 6.352h1.578v-.114h-1.578zM26.613 6.914h.11v-.11h-.11zM27.645 6.914h.316v-.113h-.316zM28.133 6.914h.105v-.676h-.105zm0 0"/><path style="stroke:none;fill-rule:evenodd;fill:#fff;fill-opacity:1" d="M28.164 6.914h.598v-.113h-.598zM27.645 6.914h.109v-.379h-.11zm0 0"/><path style="stroke:none;fill-rule:evenodd;fill:#fff;fill-opacity:1" d="M28.668 6.914h.11v-.676h-.11zM28.402 6.914h.106v-.676h-.106zM26.379 6.621h.578v-.113h-.578zM27.645 6.621h.578v-.113h-.578zm0 0"/><path style="stroke:none;fill-rule:evenodd;fill:#fff;fill-opacity:1" d="M27.645 6.914h.109v-.379h-.11zm0 0"/><path style="stroke:none;fill-rule:evenodd;fill:#fff;fill-opacity:1" d="M27.645 6.914h.109v-.379h-.11zm0 0"/><path style="stroke:none;fill-rule:evenodd;fill:#fff;fill-opacity:1" d="M27.645 6.914h.109v-.379h-.11zM26.379 6.914h.105v-.379h-.105zM27.309 6.914h.105v-.379h-.105zM26.848 6.914h.109v-.379h-.11zm0 0"/><path style="stroke:none;fill-rule:evenodd;fill:#fff;fill-opacity:1" d="M26.898 6.914h.485v-.113h-.485zM27.11 6.621h.308v-.113h-.309zM2.945 6.352h1.582v-.114H2.945zM3.184 6.914h.105v-.11h-.105zM4.21 6.914h.317v-.113h-.316zM4.703 6.914h.11v-.676h-.11zm0 0"/><path style="stroke:none;fill-rule:evenodd;fill:#fff;fill-opacity:1" d="M4.734 6.914h.598v-.113h-.598zM4.21 6.914h.11v-.379h-.11zm0 0"/><path style="stroke:none;fill-rule:evenodd;fill:#fff;fill-opacity:1" d="M5.242 6.914h.11v-.676h-.11zM4.969 6.914h.11v-.676h-.11zM2.95 6.621h.577v-.113H2.95zM4.21 6.621h.58v-.113h-.58zm0 0"/><path style="stroke:none;fill-rule:evenodd;fill:#fff;fill-opacity:1" d="M4.21 6.914h.11v-.379h-.11zm0 0"/><path style="stroke:none;fill-rule:evenodd;fill:#fff;fill-opacity:1" d="M4.21 6.914h.11v-.379h-.11zm0 0"/><path style="stroke:none;fill-rule:evenodd;fill:#fff;fill-opacity:1" d="M4.21 6.914h.11v-.379h-.11zM2.95 6.914h.109v-.379h-.11zM3.875 6.914h.11v-.379h-.11zM3.418 6.914h.105v-.379h-.105zm0 0"/><path style="stroke:none;fill-rule:evenodd;fill:#fff;fill-opacity:1" d="M3.46 6.914h.493v-.113h-.492zM3.676 6.621h.312v-.113h-.312zm0 0"/><path style="stroke:none;fill-rule:evenodd;fill:#e30016;fill-opacity:1" d="M7.758 13.184h.172v-.352h-.172zM12.383 13.184h.176v-.352h-.176zM4.207 13.184h.176v-.352h-.176zM6.555 13.184h.175v-.352h-.175zM8.887 13.184h.175v-.352h-.175zM10.04 13.184h.175v-.352h-.176zM11.219 13.184h.172v-.352h-.172zM13.54 13.184h.17v-.352h-.17zM19.39 13.184h.176v-.352h-.175zM14.715 13.184h.176v-.352h-.176zM15.871 13.184h.172v-.352h-.172zM17.035 13.184h.176v-.352h-.176zM18.203 13.184h.172v-.352h-.172zM27.516 13.184h.175v-.352h-.175zM20.52 13.184h.175v-.352h-.175zM21.7 13.184h.175v-.352h-.176zM22.89 13.184h.172v-.352h-.171zM24.008 13.184h.172v-.352h-.172zM25.195 13.184h.176v-.352h-.176zM26.363 13.184h.176v-.352h-.176zM29.813 13.184h.175v-.352h-.175zM28.695 13.184h.176v-.352h-.176zM5.375 13.184h.176v-.352h-.176zm0 0"/><path style="stroke:none;fill-rule:evenodd;fill:#71a21c;fill-opacity:1" d="M7.758 7.234h.172v-.351h-.172zM12.383 7.234h.176v-.351h-.176zM4.207 7.234h.176v-.351h-.176zM6.555 7.234h.175v-.351h-.175zM8.887 7.234h.175v-.351h-.175zM10.04 7.234h.175v-.351h-.176zM11.219 7.234h.172v-.351h-.172zM13.54 7.234h.17v-.351h-.17zM19.39 7.234h.176v-.351h-.175zM14.715 7.234h.176v-.351h-.176zM15.871 7.234h.172v-.351h-.172zM17.035 7.234h.176v-.351h-.176zM18.203 7.234h.172v-.351h-.172zM27.516 7.234h.175v-.351h-.175zM20.52 7.234h.175v-.351h-.175zM21.7 7.234h.175v-.351h-.176zM22.89 7.234h.172v-.351h-.171zM24.008 7.234h.172v-.351h-.172zM25.195 7.234h.176v-.351h-.176zM26.363 7.234h.176v-.351h-.176zM29.813 7.234h.175v-.351h-.175zM28.695 7.234h.176v-.351h-.176zM5.375 7.234h.176v-.351h-.176zm0 0"/><path style="stroke:none;fill-rule:evenodd;fill:#e30016;fill-opacity:1" d="M17.918 8.32a2.039 2.039 0 0 1 .441 3.13c.758-.169 1.723-2.407-.441-3.13zm-2.102 3.461c.278.004.602-.023.907-.101-.743-.528-.996-1.172-.989-1.758.008-.68.368-1.281.723-1.527-.234.289-.96 1.882.438 2.93l.011.003-.043-2.805.258-.218.258.218-.024 2.793c1.383-1.046.665-2.632.426-2.921.36.246.715.847.727 1.527.008.582-.246 1.223-.98 1.75.308.082.644.113.933.11-.258.14-.746.1-1.113.07v.039l-.227.238-.207-.238v-.04c-.367.036-.844.067-1.098-.07zm.504-3.46a2.039 2.039 0 0 0-.437 3.128c-.762-.168-1.723-2.406.437-3.129zm.258-.403c.082.223.3.258.54.125.171.102.437.11.527-.113.07.55-.512.422-.532.312-.215.207-.617.09-.535-.324zm0 0"/><path style="stroke:none;fill-rule:evenodd;fill:#1b1918;fill-opacity:1" d="m3.082 22.133-.066.113c-.016.024-.024.043-.036.063l-.03.058-.044-.027c-.015-.012-.031-.02-.054-.035l-.114-.059c.024-.035.047-.066.067-.105l.066-.133c.07.05.14.09.211.125zm.426.805a.61.61 0 0 1-.145.425.5.5 0 0 1-.386.157c-.13 0-.23-.028-.301-.086-.082-.067-.125-.172-.125-.313 0-.062.015-.129.035-.195.027-.059.055-.113.09-.168.011-.02.023-.028.031-.028.004 0 .012.004.012.016v.012c-.008.004-.008.008-.012.015-.004.02-.008.04-.016.059a.716.716 0 0 1-.023.074c-.008.055-.016.094-.016.121 0 .082.032.137.094.168.043.02.117.032.215.032a.762.762 0 0 0 .324-.067c.082-.039.121-.078.121-.117a.483.483 0 0 0-.031-.145c-.008-.02-.02-.043-.031-.066-.012-.027-.028-.055-.043-.086a.773.773 0 0 1-.04-.062c-.015-.024-.03-.051-.054-.079l.078-.199c.008-.023.008-.031.02-.035.004.004.007.004.007.008a.07.07 0 0 1 .02.027.62.62 0 0 1 .129.27.807.807 0 0 1 .047.262zm.469 0a.56.56 0 0 1-.032.199c-.007.031-.02.058-.027.086-.012.023-.023.043-.035.062-.02.027-.035.043-.047.043-.004 0-.008-.02-.008-.058 0-.032 0-.075-.004-.13v-.12c0-.04-.004-.07-.004-.098-.004-.027-.007-.067-.015-.121l-.02-.215-.02-.254-.015-.223c.012-.015.031-.047.066-.097l.082-.11.016-.027c.004-.008.012-.012.016-.012s.004 0 .004.004c0 0 .003.008.003.016v.09c0 .027.004.07.008.129 0 .058.004.097.004.125l.012.289c0 .062.008.113.008.16.004.164.008.254.008.262zm1.054.386H4.97a.11.11 0 0 0-.051.016.125.125 0 0 0-.02.05.937.937 0 0 1-.16.387c-.09.125-.195.188-.3.188a.638.638 0 0 1-.285-.098c-.008-.008-.012-.012-.02-.015-.008-.004-.008-.008-.012-.012a.085.085 0 0 1-.012-.02c0-.008.016-.015.059-.015a.627.627 0 0 0 .45-.192.294.294 0 0 0 .058-.062c.02-.02.031-.043.054-.074a.351.351 0 0 0 .063-.16c0-.012-.008-.028-.023-.055-.02-.016-.028-.032-.043-.047l-.075-.074.121-.2c0-.007.004-.007.008-.003a.708.708 0 0 0 .094.074c.027.02.059.031.094.031h.062zm.375-.32a.4.4 0 0 1-.086.25c-.015.02-.047.035-.093.05-.02.009-.043.012-.067.016-.023.004-.047.004-.074.004h-.133v-.281h.102c.152 0 .234-.012.234-.027 0-.028-.02-.063-.062-.106l-.067-.066.09-.188c.008-.02.016-.031.02-.031.003 0 .003 0 .003.004.008.004.012.008.02.02a.89.89 0 0 1 .082.16.47.47 0 0 1 .023.093c.008.032.008.067.008.102zm.133.64-.082.11-.043.055-.133-.086-.031.047-.047.066-.183-.133.113-.172c.004 0 .012.012.031.028l.059.043.05.03.028-.042.05-.078zm.469-.706c0 .07-.008.136-.028.199-.011.031-.023.058-.03.086a.198.198 0 0 1-.036.062c-.02.027-.039.043-.043.043-.008 0-.012-.02-.012-.058v-.13c-.004-.054-.004-.097-.004-.12 0-.04 0-.07-.003-.098 0-.027-.008-.067-.016-.121l-.02-.215-.023-.254-.004-.223c.004-.015.027-.047.063-.097l.078-.11.015-.027c.008-.008.012-.012.016-.012l.008.004s0 .008.004.016v.09c0 .027 0 .07.004.129.003.058.003.097.003.125l.02.289v.16c.008.164.008.254.008.262zm1.867.386h-.172a.627.627 0 0 0-.16.02c-.008.008-.02.011-.027.02-.02.011-.028.019-.028.023s.012.011.035.02c.028.007.055.011.086.019.032.008.067.015.098.027.086.02.125.047.125.07 0 .122-.098.235-.305.34-.203.11-.41.16-.617.16-.129 0-.23-.027-.3-.085-.075-.06-.11-.149-.11-.274a.754.754 0 0 1 .176-.445c.023-.028.043-.043.054-.043.008 0 .012.004.012.012 0 .007-.004.019-.012.03-.011.024-.023.048-.03.067-.013.024-.02.047-.032.074a.544.544 0 0 0-.02.13c0 .1.047.175.141.222a.63.63 0 0 0 .266.05c.09 0 .203-.015.336-.046.132-.031.203-.059.203-.074-.012-.004-.016-.004-.02-.008-.047-.012-.09-.02-.129-.028-.101-.02-.152-.05-.152-.085a.6.6 0 0 1 .191-.375c.07-.07.141-.102.227-.102h.164zm.688-.219c0 .016-.024.043-.067.075-.043.035-.078.05-.098.05a.328.328 0 0 1-.109-.035l-.152-.07c-.016 0-.035.012-.059.04l-.043.05c-.062.074-.117.11-.148.11h-.082v-.282h.086c.07 0 .129-.023.164-.063.011-.02.03-.058.066-.117l.059-.105c.015-.024.023-.04.027-.047.05-.066.102-.102.156-.102.035 0 .063.008.078.016a.208.208 0 0 1 .051.05c.02.02.035.075.047.157.016.086.024.176.024.273zm-.145-.117a.215.215 0 0 0-.047-.136c-.027-.036-.055-.055-.082-.055-.016 0-.027.012-.047.031-.015.024-.023.04-.023.055 0 .039.054.078.156.113l.035.012c.004 0 .008-.008.008-.02zm1.742.336h-.117a.187.187 0 0 1-.152-.066.669.669 0 0 1-.098-.238l-.086-.426c-.02.133-.039.226-.047.281a1.42 1.42 0 0 1-.043.152c-.02.047-.039.09-.062.133a.612.612 0 0 1-.227.23c-.02.008-.043.02-.078.028a.652.652 0 0 1-.117.027c-.047.008-.09.016-.133.02-.043.004-.074.008-.105.008-.043 0-.067-.008-.07-.02 0-.012.023-.027.062-.047.058-.027.113-.058.172-.09.058-.035.129-.086.21-.148.047-.035.09-.074.126-.11.039-.042.062-.078.062-.101 0-.031-.031-.086-.09-.16a1.988 1.988 0 0 0-.199-.207c-.082-.063-.133-.098-.168-.098v.004c-.008.008-.016.012-.02.02-.011.011-.023.015-.03.02a.469.469 0 0 1-.137-.075c-.083-.055-.126-.094-.133-.121V22.195c0-.023.004-.047.008-.074 0-.047.003-.074.019-.074.055 0 .148.043.285.133.133.086.246.172.324.258.047.046.09.101.13.16.042.074.074.14.093.199.024-.05.043-.145.059-.285a4.877 4.877 0 0 0 .023-.465l.055-.09.05-.094.012-.02c.004-.011.008-.015.012-.015 0 0 0 .004.008.008.004.008.004.02.008.027.007.055.011.11.02.16.007.055.019.11.027.172.007.059.015.102.019.125.004.067.016.106.02.121l.03.188a1.3 1.3 0 0 0 .087.324c.031.059.074.09.133.09h.058zm1.211-.39a.426.426 0 0 1-.05.214c-.044.067-.098.098-.169.098a.28.28 0 0 1-.222-.094.437.437 0 0 1-.102.125.289.289 0 0 1-.172.047.296.296 0 0 1-.172-.05.34.34 0 0 1-.101-.11c-.012.04-.047.078-.098.113a.227.227 0 0 1-.12.047h-.08v-.281h.087c.066 0 .117-.02.156-.05l.102-.114.043.086c.023.055.082.086.175.086a.296.296 0 0 0 .207-.078l.13-.164c.011 0 .019.007.027.02a.363.363 0 0 0 .023.07c.008.019.02.03.024.038.023.024.05.043.078.055.015.004.043.004.074.004.008 0 .016 0 .016-.004.003-.004.007-.012.007-.023 0-.012-.011-.035-.035-.067l-.039-.047.11-.144c.003-.008.007-.016.011-.016 0-.004.004-.008.008-.008v.004a.085.085 0 0 1 .02.016c.015.027.027.059.043.098l.015.066c.004.02.004.043.004.063zm.469.003c0 .07-.008.137-.027.2-.016.031-.024.058-.032.086a.198.198 0 0 1-.035.062c-.02.027-.035.043-.043.043-.008 0-.012-.02-.012-.058v-.13c-.004-.054-.004-.097-.004-.12 0-.04 0-.07-.003-.098 0-.027-.012-.067-.016-.121l-.02-.215-.02-.254-.007-.223c0-.015.027-.047.063-.097l.078-.11.015-.027c.008-.008.012-.012.016-.012v.004c.004 0 .004.008.012.016v.09c0 .027 0 .07.004.129.004.058.004.097.004.125l.019.289v.16c.008.164.008.254.008.262zm1.848-.332c0 .008-.004.024-.008.04a.363.363 0 0 0-.024.07c-.015.062-.035.094-.039.094l-.02-.008a.403.403 0 0 0-.1-.012.43.43 0 0 0-.208.074c-.082.055-.125.098-.125.13 0 .034.04.058.121.073l.235.036c.085.023.128.062.128.12 0 .024 0 .048-.003.075 0 .023-.008.055-.012.09-.016.086-.031.136-.051.16a.613.613 0 0 1-.16.133.935.935 0 0 1-.277.14.955.955 0 0 1-.332.067c-.168 0-.293-.035-.368-.11-.078-.074-.113-.187-.113-.347 0-.07.016-.153.05-.239.016-.043.032-.086.056-.12.019-.036.039-.075.07-.114.012-.02.023-.031.035-.031.012 0 .016.008.016.02l-.004.015-.043.086c-.008.027-.02.055-.032.09a.445.445 0 0 0-.039.168c0 .11.047.191.137.242.07.039.168.058.293.058a1.7 1.7 0 0 0 .27-.027c.086-.02.175-.047.261-.09a.306.306 0 0 0 .07-.043c.024-.02.032-.039.032-.058 0-.024-.066-.04-.207-.059a.416.416 0 0 1-.203-.062c-.055-.036-.082-.098-.082-.184 0-.043.023-.102.07-.18a.825.825 0 0 1 .148-.187.812.812 0 0 1 .082-.082c.024-.024.047-.04.067-.055a.525.525 0 0 1 .094-.047.263.263 0 0 1 .093-.015c.024 0 .047.004.07.015.032.02.052.043.052.074zm.968.56c0 .089-.011.167-.035.237a.608.608 0 0 1-.11.196.707.707 0 0 1-.093.093.42.42 0 0 1-.094.07.346.346 0 0 1-.172.06.44.44 0 0 1-.148-.036.888.888 0 0 1-.16-.086c-.028-.02-.04-.035-.04-.043 0-.011.012-.015.036-.015h.027l.016.004h.027c.035 0 .067-.004.094-.004a.542.542 0 0 0 .066-.012l.04-.012c.109-.039.21-.11.296-.207.074-.09.114-.16.114-.21 0-.02-.024-.055-.055-.102-.02-.024-.035-.043-.055-.063l-.058-.058.117-.22c.004-.007.011-.007.02-.003.05.043.093.098.124.168a.685.685 0 0 1 .043.242zm1.184.155h-.149c-.007.043-.02.082-.027.121-.016.04-.031.082-.055.13a.814.814 0 0 1-.195.253.45.45 0 0 1-.3.117c-.06 0-.122-.03-.192-.09a.658.658 0 0 1-.133-.171c-.004-.016-.004-.028-.008-.035 0-.012.008-.016.016-.016.015 0 .027 0 .035.004l.105.031c.04.012.083.016.126.016a.58.58 0 0 0 .378-.121.356.356 0 0 0 .137-.2v-.039c-.055 0-.098 0-.14-.004-.04-.007-.07-.011-.094-.023a.132.132 0 0 1-.09-.133c0-.086.035-.18.113-.285.074-.102.137-.152.192-.152.03 0 .062.027.097.082.035.062.059.14.067.238h.117zm-.242-.28a.184.184 0 0 0-.043-.106c-.016-.024-.035-.036-.059-.036-.02 0-.039.024-.055.063-.007.031-.02.055-.02.066 0 .008 0 .012.009.012 0 .004.008.008.02.008a.168.168 0 0 0 .046.008c.035 0 .07-.008.102-.016zm1.172.284h-.18c-.016 0-.027 0-.043.004a.257.257 0 0 0-.05.012c.026.02.046.05.062.098.007.019.011.042.015.062.004.02.008.035.008.05a.349.349 0 0 1-.062.192c-.051.067-.11.102-.18.102a.183.183 0 0 1-.121-.043.396.396 0 0 1-.098-.13.704.704 0 0 1-.074-.308h-.063v-.058l-.07.015-.062.004h-.09v-.281h.07c.05 0 .098-.004.14-.012a.321.321 0 0 0 .098-.027.68.68 0 0 1 .094-.25.919.919 0 0 1 .172-.192c.059-.05.11-.078.144-.078.028 0 .051.024.06.07a.7.7 0 0 1-.02.36.447.447 0 0 1-.165.176.412.412 0 0 1 .075-.02.895.895 0 0 1 .227-.027h.113zm-.336-.504c0-.02-.012-.035-.028-.05a.076.076 0 0 0-.047-.024c-.02 0-.05.024-.09.067a.837.837 0 0 0-.101.164.822.822 0 0 0 .184-.075c.054-.03.082-.058.082-.082zm.046.707c0-.03-.03-.066-.101-.101a.458.458 0 0 0-.215-.051c.004.031.02.059.031.086.016.027.032.055.051.078.043.05.086.078.125.078a.158.158 0 0 0 .074-.027c.024-.02.035-.04.035-.063zm1.372-.203h-.106a.38.38 0 0 1-.105-.02.539.539 0 0 1-.149-.09.263.263 0 0 1-.023.126.072.072 0 0 1-.059.047c-.039 0-.078-.02-.137-.051-.027-.016-.054-.031-.07-.043a.413.413 0 0 1-.05-.035l-.083-.063c-.03-.023-.058-.035-.074-.035l-.113.113c-.04.036-.074.051-.11.051h-.082v-.281h.09c.086 0 .149-.016.18-.043l.102-.129.074-.09c.035-.039.074-.058.105-.058s.078.027.13.082l.16.152a.32.32 0 0 0 .198.086h.122zm-.508-.273a.242.242 0 0 0-.032-.121c-.023-.035-.05-.051-.078-.051-.007 0-.027.008-.047.031-.023.02-.035.04-.054.063.023.02.05.043.086.066a.357.357 0 0 0 .105.055c.012.008.016 0 .02-.012zm1.816-.274c-.004.004-.004.008-.004.012s-.004.012-.008.023l-.066.2c-.023 0-.055-.004-.094-.004l-.133.004c-.023 0-.039 0-.058.004a1.772 1.772 0 0 0-.426.121l-.262.125a.544.544 0 0 1-.242.062h-.094v-.281h.09c.117 0 .227-.02.332-.05l.254-.087c.02-.004.028-.008.028-.011-.004 0-.004-.004-.008-.004 0-.004-.004-.004-.012-.008a3.372 3.372 0 0 1-.18-.059c-.03-.008-.047-.015-.066-.02a.377.377 0 0 0-.047-.007.648.648 0 0 0-.094.008.46.46 0 0 0-.078.027.095.095 0 0 1-.05.023c-.012 0-.024-.011-.024-.027v-.015l.016-.028a.279.279 0 0 1 .046-.09.256.256 0 0 1 .06-.07c.046-.043.093-.066.144-.066.05 0 .12.02.203.054l.246.098c.11.035.215.055.316.055h.203c.004 0 .008.004.008.011zm-.418.868-.09.148-.047.086-.097-.059-.113-.062a.626.626 0 0 0 .062-.106 2.02 2.02 0 0 0 .066-.129c.075.051.145.09.22.122zm1.91-1.668-.062.07a.152.152 0 0 0-.027.09v.023l.058.477c.02.164.031.285.031.355v.031l-.004.024a.423.423 0 0 1-.175.351.64.64 0 0 1-.407.13.43.43 0 0 1-.312-.11.37.37 0 0 1-.11-.273c0-.032.008-.067.016-.102.004-.035.02-.074.035-.117.02-.043.04-.082.059-.117a.406.406 0 0 1 .066-.094c.012-.016.024-.024.035-.024.008 0 .012.004.012.016s-.004.02-.012.031c-.02.035-.039.078-.062.13a.538.538 0 0 0-.035.175c0 .059.031.105.097.145.063.035.141.054.23.054a.653.653 0 0 0 .325-.078c.07-.039.11-.074.11-.105 0-.188-.024-.387-.051-.606a2.412 2.412 0 0 0-.117-.488c.05-.055.097-.11.136-.168l.02-.02.008.008c.011.02.023.043.043.07.02.032.039.051.05.067.008.012.02.027.043.055zm.73 1.347h-.128a.22.22 0 0 1-.195-.101.648.648 0 0 1-.067-.246l-.027-.29a7.827 7.827 0 0 0-.047-.43l-.02-.214.051-.05c.035-.044.067-.075.086-.102.008-.02.02-.028.027-.028.008 0 .012.012.012.04l.063.87c0 .11.015.184.047.22.027.03.078.05.152.05h.047zm.555 0h-.09a.223.223 0 0 1-.136-.047.251.251 0 0 1-.09-.105.29.29 0 0 1-.101.105.2.2 0 0 1-.125.047h-.086v-.281h.109c.062 0 .113-.02.152-.05l.094-.114c.004 0 .016.008.02.031.003.012.007.02.011.031 0 .008.004.02.008.032.012.023.024.039.04.05a.35.35 0 0 0 .113.02h.081zm-.148.348-.07.117c-.016.027-.032.05-.04.07-.015.02-.019.036-.023.047l-.101-.062-.114-.059a2.09 2.09 0 0 0 .133-.238l.106.07c.03.016.066.035.11.055zm.664-1.399-.086.11-.039.058-.129-.086-.035.043-.031.043c-.012.012-.012.02-.016.028l-.183-.137.109-.172c.02.012.031.024.047.035.012.012.031.024.047.035l.05.036.016-.028a.666.666 0 0 0 .035-.054.246.246 0 0 0 .028-.04zm-.137.73c0 .052-.007.099-.027.138a.323.323 0 0 1-.062.113c-.016.02-.047.035-.09.05-.024.009-.047.012-.07.016-.028.004-.047.004-.07.004h-.138v-.281h.102c.16 0 .238-.012.238-.027 0-.028-.027-.063-.062-.106l-.07-.066.09-.188c.007-.02.011-.031.023-.031l.004.004.015.02c.04.054.067.109.082.16.008.03.016.066.028.093a.825.825 0 0 1 .007.102zM23.633 23.32h-.149a1.1 1.1 0 0 1-.027.121l-.055.13a.814.814 0 0 1-.195.253.45.45 0 0 1-.3.117c-.06 0-.122-.03-.188-.09a.524.524 0 0 1-.133-.171.09.09 0 0 1-.012-.035c0-.012.008-.016.02-.016.011 0 .023 0 .027.004l.11.031c.039.012.081.016.124.016a.58.58 0 0 0 .38-.121.356.356 0 0 0 .136-.2v-.039c-.055 0-.098 0-.14-.004-.04-.007-.07-.011-.094-.023-.059-.023-.094-.066-.094-.133 0-.086.043-.18.117-.285.074-.102.133-.152.192-.152.03 0 .062.027.097.082.035.062.059.14.067.238h.117zm-.242-.28a.184.184 0 0 0-.043-.106c-.016-.024-.035-.036-.059-.036-.02 0-.043.024-.055.063-.007.031-.015.055-.015.066 0 .008 0 .012.004.012 0 .004.007.008.02.008a.168.168 0 0 0 .046.008c.035 0 .07-.008.102-.016zm.73-1.036-.066.11-.067.124c-.023-.015-.035-.023-.039-.027a.573.573 0 0 1-.058-.035l-.114-.063.028-.035c.011-.02.023-.043.039-.066l.066-.133c.07.05.137.09.211.125zm.102.902a.593.593 0 0 1-.028.176.27.27 0 0 1-.082.11.66.66 0 0 1-.199.105.96.96 0 0 1-.273.027h-.086v-.281h.14a.917.917 0 0 0 .336-.047.178.178 0 0 0 .098-.074l.004-.02a.104.104 0 0 0-.012-.047.149.149 0 0 0-.035-.05.286.286 0 0 1-.09.082.237.237 0 0 1-.098.023c-.046 0-.085-.012-.109-.039a.156.156 0 0 1-.043-.113c0-.059.027-.133.07-.23.051-.106.098-.157.149-.157.02 0 .047.016.078.05a.394.394 0 0 1 .066.075c.02.031.04.063.055.098.04.09.059.195.059.312zm-.227-.222a.147.147 0 0 0-.035-.063c-.008-.008-.012-.016-.02-.02l-.02-.007c-.007 0-.015.011-.03.035-.008.012-.012.023-.02.039-.004.012-.004.023-.004.035 0 .008.004.012.016.016l.031.004c.02 0 .035-.004.05-.012.02-.008.028-.016.032-.027zm1.246-.551-.074.113a.311.311 0 0 1-.031.063c-.016.023-.02.043-.028.058-.015-.008-.03-.02-.047-.027a1.196 1.196 0 0 1-.054-.035l-.113-.059c.02-.035.046-.066.066-.105l.066-.133c.07.05.137.09.215.125zm.422.805c0 .18-.047.324-.144.425a.512.512 0 0 1-.387.157c-.13 0-.23-.028-.301-.086-.086-.067-.125-.172-.125-.313 0-.062.016-.129.04-.195a.76.76 0 0 1 .085-.168c.012-.02.023-.028.035-.028.004 0 .004.004.004.016v.012c0 .004 0 .008-.004.015-.008.02-.012.04-.02.059-.003.016-.011.043-.019.074a.675.675 0 0 0-.02.121c0 .082.032.137.094.168.043.02.118.032.22.032.12 0 .23-.024.32-.067.081-.039.12-.078.12-.117 0-.04-.015-.086-.03-.145a.37.37 0 0 0-.036-.066c-.008-.027-.023-.055-.039-.086-.023-.035-.039-.055-.043-.062l-.043-.079.07-.199c.008-.023.012-.031.02-.035.004.004.008.004.008.008a.788.788 0 0 1 .152.297.905.905 0 0 1 .043.262zm1.184.382h-.149a.425.425 0 0 1-.031.121.814.814 0 0 1-.246.383.45.45 0 0 1-.3.117c-.056 0-.118-.03-.188-.09a.601.601 0 0 1-.137-.171c-.004-.016-.008-.028-.008-.035 0-.012.004-.016.02-.016.011 0 .023 0 .03.004l.106.031a.467.467 0 0 0 .13.016c.148 0 .273-.04.374-.121.078-.063.125-.13.137-.2v-.039c-.05 0-.098 0-.137-.004-.043-.007-.078-.011-.097-.023-.063-.023-.086-.066-.086-.133 0-.086.03-.18.105-.285.078-.102.145-.152.2-.152.03 0 .062.027.093.082a.52.52 0 0 1 .066.238h.118zm-.243-.28a.182.182 0 0 0-.039-.106c-.023-.024-.039-.036-.062-.036-.02 0-.035.024-.05.063a.212.212 0 0 0-.017.066v.012c0 .004.008.008.02.008a.181.181 0 0 0 .055.008.427.427 0 0 0 .093-.016zm.801.284h-.093a.262.262 0 0 1-.141-.047.26.26 0 0 1-.082-.105.372.372 0 0 1-.102.105.218.218 0 0 1-.129.047h-.086v-.281h.114c.062 0 .11-.02.148-.05l.094-.114c.008 0 .016.008.023.031 0 .012.004.02.008.031.004.008.004.02.008.032.012.023.023.039.039.05l.04.012c.023.004.042.008.077.008h.082zm-.058.32-.086.11-.04.055-.132-.086-.035.047-.047.066-.184-.133.113-.172c.032.024.06.047.094.07l.047.032.031-.043.051-.078zm1.27-.71c0 .082-.02.152-.055.214a.194.194 0 0 1-.168.098.278.278 0 0 1-.227-.094.376.376 0 0 1-.098.125.289.289 0 0 1-.172.047.296.296 0 0 1-.171-.05.403.403 0 0 1-.106-.11.225.225 0 0 1-.094.113.227.227 0 0 1-.125.047h-.074v-.281h.086c.066 0 .117-.02.156-.05l.098-.114.043.086c.027.055.082.086.18.086a.303.303 0 0 0 .207-.078l.129-.164c.011 0 .02.007.027.02a.363.363 0 0 0 .023.07c.008.019.012.03.02.038.027.024.05.043.082.055.016.004.035.004.074.004.008 0 .012 0 .016-.004s.004-.012.004-.023c0-.012-.008-.035-.032-.067l-.039-.047.11-.144.008-.016c.003-.004.007-.008.011-.008.004 0 .004 0 .004.004l.012.016c.02.027.031.059.047.098.008.027.011.047.015.066.004.02.008.043.008.063zm.464.003c0 .07-.008.137-.027.2-.016.031-.02.058-.032.086-.011.023-.027.043-.035.062-.02.027-.035.043-.043.043-.008 0-.011-.02-.011-.058 0-.032 0-.075-.004-.13v-.12c0-.04 0-.07-.008-.098a.844.844 0 0 1-.008-.121l-.023-.215-.02-.254-.008-.223c.004-.015.028-.047.059-.097l.082-.11.016-.027c.007-.008.011-.012.02-.012v.02l.003.09c0 .027 0 .07.004.129a.863.863 0 0 1 .008.125l.015.289c0 .062.004.113.004.16.004.164.008.254.008.262zm.973.227c0 .09-.016.168-.035.238a.68.68 0 0 1-.106.196c-.027.03-.059.062-.09.093a.792.792 0 0 1-.101.07.334.334 0 0 1-.168.06.421.421 0 0 1-.149-.036.927.927 0 0 1-.164-.086c-.023-.02-.035-.035-.035-.043 0-.011.012-.015.035-.015h.024l.015.004h.032c.03 0 .058-.004.093-.004a.453.453 0 0 0 .063-.012l.043-.012a.71.71 0 0 0 .293-.207c.078-.09.113-.16.113-.21 0-.02-.016-.055-.055-.102-.015-.024-.035-.043-.05-.063-.024-.02-.04-.039-.067-.058l.121-.22c.004-.007.012-.007.02-.003a.389.389 0 0 1 .125.168.685.685 0 0 1 .043.242zm1.285.16h-.106c-.066 0-.12-.031-.172-.094a.614.614 0 0 1-.085-.183.359.359 0 0 1-.063.105.231.231 0 0 1-.066.07.501.501 0 0 1-.118.067.717.717 0 0 1-.352-.004c-.05-.02-.073-.043-.073-.078a.36.36 0 0 1 .02-.113c.01-.051.027-.09.038-.121.008-.032.024-.043.032-.043.007 0 .015.011.02.035.003.027.03.047.07.062.038.016.085.024.144.024.117 0 .195-.024.242-.063.031-.031.047-.078.047-.14 0-.055-.008-.13-.023-.223a3.178 3.178 0 0 0-.063-.277l.133-.137.015-.016.004.004a.03.03 0 0 1 .008.016c.024.082.047.21.07.383.012.086.02.152.032.203.008.054.015.09.023.113.028.086.074.129.14.129h.083zm.496-1.32-.074.11-.063.124a.274.274 0 0 1-.043-.027c-.011-.008-.035-.02-.058-.035l-.11-.063c.004-.004.008-.015.024-.035.011-.02.027-.043.035-.066l.07-.133c.07.05.145.09.219.125zm.094.902a.593.593 0 0 1-.028.176.239.239 0 0 1-.082.11.58.58 0 0 1-.199.105.942.942 0 0 1-.273.027h-.082v-.281h.14a.894.894 0 0 0 .332-.047.178.178 0 0 0 .098-.074l.004-.02a.104.104 0 0 0-.012-.047.12.12 0 0 0-.039-.05.214.214 0 0 1-.184.105c-.046 0-.082-.012-.109-.039-.027-.027-.039-.066-.039-.113a.62.62 0 0 1 .066-.23c.051-.106.098-.157.145-.157.023 0 .05.016.086.05.023.024.043.048.066.075.016.031.035.063.051.098.04.09.059.195.059.312zm-.223-.222a.162.162 0 0 0-.039-.063.047.047 0 0 0-.02-.02c-.007-.003-.011-.007-.015-.007-.012 0-.02.011-.031.035a.074.074 0 0 0-.02.039c-.004.012-.008.023-.008.035 0 .008.008.012.02.016l.027.004c.02 0 .04-.004.05-.012.02-.008.032-.016.036-.027zM3.313 27.645h-.63v.043c0 .066.012.125.028.164a.259.259 0 0 0 .105.109c.051.031.114.05.196.059v.039h-.766v-.04c.145-.011.238-.05.285-.117a.346.346 0 0 0 .07-.215v-.042h-.468a.528.528 0 0 0-.149.011c-.023.008-.035.028-.05.051a.195.195 0 0 0-.024.102v.05h-.039v-.8h.04v.05c0 .047.007.082.026.11.008.02.024.035.055.043.016.011.063.015.14.015h1.009c.078 0 .125-.004.144-.015a.091.091 0 0 0 .047-.047.177.177 0 0 0 .027-.106v-.05h.043v1.293h-.445v-.047a.422.422 0 0 0 .234-.082.336.336 0 0 0 .102-.188.921.921 0 0 0 .02-.25zm.105 1.898a.737.737 0 0 1-.211.594.76.76 0 0 1-.566.226.84.84 0 0 1-.516-.168.773.773 0 0 1-.293-.64c0-.274.098-.489.285-.637a.81.81 0 0 1 .524-.18c.226 0 .418.078.566.235a.707.707 0 0 1 .211.57zm-.066.012c0-.14-.075-.246-.215-.32-.117-.06-.285-.087-.512-.087-.254 0-.45.043-.574.137a.307.307 0 0 0-.133.27c0 .074.023.14.059.191a.472.472 0 0 0 .23.156c.106.035.246.055.414.055.203 0 .356-.02.453-.055a.46.46 0 0 0 .215-.144.357.357 0 0 0 .063-.203zm.066 2.02c.008.245-.063.44-.215.593a.769.769 0 0 1-.566.23.81.81 0 0 1-.512-.171c-.2-.149-.297-.364-.297-.637 0-.274.09-.488.281-.637a.804.804 0 0 1 .524-.18c.23 0 .418.079.57.23a.747.747 0 0 1 .215.571zm-.074.015c0-.14-.07-.246-.219-.32-.113-.06-.281-.09-.5-.09-.262 0-.457.047-.582.136a.323.323 0 0 0-.129.27c0 .078.02.144.055.195.05.067.129.117.234.157.106.035.242.054.41.054.203 0 .356-.02.457-.058a.421.421 0 0 0 .211-.145.327.327 0 0 0 .063-.2zm.066 2.586h-.414v-.043a.695.695 0 0 0 .207-.078.344.344 0 0 0 .102-.121.419.419 0 0 0 .02-.149v-.117h-1.18a.387.387 0 0 0-.149.016.092.092 0 0 0-.05.05.185.185 0 0 0-.028.102v.05h-.035v-.8h.035v.05a.2.2 0 0 0 .027.106.13.13 0 0 0 .055.047c.02.008.066.012.145.012h1.18v-.11c0-.101-.024-.175-.067-.222a.425.425 0 0 0-.262-.125V32.8h.414zm-.726 1.347a.784.784 0 0 1-.122.309.34.34 0 0 1-.269.125.34.34 0 0 1-.281-.14c-.094-.114-.137-.278-.137-.493v-.781h.04c0 .074.003.121.019.145.015.027.027.042.05.054a.439.439 0 0 0 .157.016h.992c.086 0 .137-.004.156-.016a.123.123 0 0 0 .055-.054.379.379 0 0 0 .02-.145h.038v.734c0 .176-.015.301-.047.375a.386.386 0 0 1-.144.172.312.312 0 0 1-.191.063.278.278 0 0 1-.2-.082c-.054-.051-.101-.145-.136-.282zm.027-.41a.6.6 0 0 0 .039.239c.023.05.059.09.102.117.043.023.101.039.168.039a.368.368 0 0 0 .167-.04.264.264 0 0 0 .098-.116.535.535 0 0 0 .031-.239zm-.086 0h-.547c-.039 0-.07.008-.09.032a.125.125 0 0 0-.031.09c0 .062.012.117.04.167.026.051.065.09.116.118.051.027.106.039.168.039a.401.401 0 0 0 .196-.047.303.303 0 0 0 .117-.137.753.753 0 0 0 .031-.262zm-.324 2.102v-.54l-.149-.066a.363.363 0 0 0-.125-.03c-.043 0-.074.015-.093.05-.016.02-.02.07-.028.152h-.043v-.511h.043a.221.221 0 0 0 .07.136c.036.035.11.078.231.133l1.219.547v.02l-1.258.55a.845.845 0 0 0-.223.133c-.027.023-.035.059-.039.106h-.043v-.739h.043v.032c0 .058.008.101.024.124.015.016.027.024.054.024.012 0 .028 0 .04-.008.007 0 .035-.012.085-.031zm.082-.04.527-.226-.527-.234zm.047 2.423-.535-.047-.024-1.36h.04v.051c.003.043.007.078.026.106.012.02.024.035.055.043.02.007.067.011.145.011l1.004-.02a.548.548 0 0 0 .148-.01.11.11 0 0 0 .047-.056.186.186 0 0 0 .023-.101l-.004-.05h.043l.016.815h-.043v-.066a.177.177 0 0 0-.027-.105.11.11 0 0 0-.055-.047.404.404 0 0 0-.14-.008l-.981.016a.48.48 0 0 0-.145.015c-.023.008-.035.028-.046.055-.008.02-.008.062-.008.137l.004.125c0 .082.015.148.043.203a.373.373 0 0 0 .14.14c.063.035.153.075.274.106zm.187 1.726-.543-.004-.14-1.351.043-.004.003.05a.211.211 0 0 0 .036.106c.011.02.027.031.058.04.02.007.067.003.145-.005l1-.105a.48.48 0 0 0 .144-.028c.02-.007.032-.027.047-.054a.224.224 0 0 0 .008-.106l-.004-.047.043-.007.086.812-.043.004-.008-.066a.184.184 0 0 0-.035-.102c-.012-.02-.031-.031-.059-.043a.595.595 0 0 0-.14.004l-.973.102a.608.608 0 0 0-.144.027c-.024.012-.036.031-.043.058a.562.562 0 0 0 .004.137l.011.13a.462.462 0 0 0 .067.194.32.32 0 0 0 .148.125c.067.036.16.063.285.086zm1.215 1.04-.602.163.012.043c.016.063.04.114.07.153a.267.267 0 0 0 .13.078.494.494 0 0 0 .203.004l.011.039-.746.199-.008-.04c.137-.05.22-.112.246-.187a.374.374 0 0 0 .012-.226l-.012-.043-.453.121a.497.497 0 0 0-.136.05.138.138 0 0 0-.036.063.197.197 0 0 0 .004.106l.012.047-.039.011-.207-.773.039-.008.016.047a.18.18 0 0 0 .05.098.095.095 0 0 0 .059.03.493.493 0 0 0 .145-.026l.972-.258a.53.53 0 0 0 .133-.051c.023-.012.035-.035.043-.063.008-.027 0-.062-.008-.105l-.012-.047.04-.012.335 1.246-.425.114-.012-.043a.44.44 0 0 0 .203-.137.384.384 0 0 0 .047-.21c0-.048-.012-.13-.043-.247zm.461 1.32-.57.254.011.027c.04.09.098.14.172.156.07.016.164.004.278-.035l.02.039-.731.328-.02-.039a.65.65 0 0 0 .172-.14c.04-.051.063-.094.063-.137a.34.34 0 0 0-.043-.164l-.395.175c-.074.032-.125.055-.133.07a.126.126 0 0 0-.031.055c-.004.024.008.055.027.094l.035.086a.598.598 0 0 0 .227.274c.098.05.21.066.355.046l.016.036-.469.136-.539-1.207.04-.02.015.048c.02.043.039.07.07.09.012.011.04.019.067.019.02 0 .066-.016.136-.047l.918-.41a.86.86 0 0 0 .114-.059.097.097 0 0 0 .039-.062.187.187 0 0 0-.02-.117l-.02-.047.04-.02.52 1.172-.415.184-.015-.04a.642.642 0 0 0 .18-.179.366.366 0 0 0 .027-.2.888.888 0 0 0-.079-.222zm-.832 1.656.039-.024.027.047c.016.04.043.063.07.078.024.012.048.02.071.016a.639.639 0 0 0 .133-.062l.867-.504a.54.54 0 0 0 .125-.082.135.135 0 0 0 .02-.07.217.217 0 0 0-.032-.098l-.031-.047.04-.02.343.594c.09.156.144.297.156.418a.632.632 0 0 1-.086.406.789.789 0 0 1-.308.301.818.818 0 0 1-.286.105.708.708 0 0 1-.257-.003.687.687 0 0 1-.22-.094 1.11 1.11 0 0 1-.323-.367zm1.547-.219-1.035.598a.532.532 0 0 0-.098.066.079.079 0 0 0-.012.043c0 .024.012.05.032.086.062.11.144.168.253.184.145.02.325-.032.536-.153.168-.097.289-.203.359-.316a.405.405 0 0 0 .07-.258.779.779 0 0 0-.105-.25zm.918 1.441-.492.383.02.024c.058.078.128.113.202.11.074 0 .16-.036.262-.099l.027.032-.633.496-.023-.035a.588.588 0 0 0 .129-.176.233.233 0 0 0 .031-.152.444.444 0 0 0-.082-.149l-.34.266c-.07.054-.109.086-.113.105a.074.074 0 0 0-.012.059c0 .023.016.05.043.086l.055.074a.56.56 0 0 0 .293.207.543.543 0 0 0 .352-.04l.023.032-.426.246-.812-1.043.027-.023.035.039a.228.228 0 0 0 .086.07c.02.008.043.008.07 0A.431.431 0 0 0 4.77 47l.793-.621a1.32 1.32 0 0 0 .097-.082c.016-.024.024-.047.02-.07a.187.187 0 0 0-.047-.114l-.031-.039.035-.027.789 1.012-.36.277-.023-.035c.07-.086.117-.156.125-.219a.287.287 0 0 0-.016-.195.878.878 0 0 0-.129-.2zm.504 1.75-.313.293a.875.875 0 0 0-.105.118.083.083 0 0 0 0 .074.312.312 0 0 0 .086.121l-.032.027-.535-.574.032-.027c.046.05.085.082.113.09.027.011.05.011.074.004a.547.547 0 0 0 .121-.094l.727-.676a.437.437 0 0 0 .105-.121.235.235 0 0 0 0-.074.354.354 0 0 0-.082-.118l.031-.027.485.52c.125.136.207.242.246.324a.378.378 0 0 1-.082.473.343.343 0 0 1-.285.101.497.497 0 0 1-.227-.086l-.129.621a.653.653 0 0 0-.02.16.21.21 0 0 0 .044.106l-.028.027-.332-.351.176-.836zm.55-.511-.492.457.047.047c.07.078.13.129.176.152a.24.24 0 0 0 .164.02.354.354 0 0 0 .168-.102c.09-.078.133-.156.137-.234.004-.078-.035-.16-.117-.25zm.887 2.168-.418-.34-.144.078a.324.324 0 0 0-.102.074c-.027.035-.035.07-.02.106a.38.38 0 0 0 .098.117l-.031.031-.39-.32.027-.031c.047.027.097.039.148.03a.98.98 0 0 0 .246-.097l1.196-.605.015.015-.36 1.32a.908.908 0 0 0-.046.258.287.287 0 0 0 .062.102l-.023.031-.582-.465.031-.035.024.02c.047.039.086.058.109.058.023.004.043-.004.055-.023l.023-.035a.49.49 0 0 1 .027-.09zm.024-.086.152-.555-.512.262zm2.37.394-.226.348-.035-.023a.705.705 0 0 0 .043-.215.342.342 0 0 0-.043-.149.404.404 0 0 0-.117-.101l-.094-.063-.644.992a.553.553 0 0 0-.07.13c0 .023.003.046.01.07.02.027.04.05.08.074l.042.031-.023.031-.672-.433.023-.035.043.027c.04.023.07.035.102.039a.16.16 0 0 0 .07-.02.554.554 0 0 0 .082-.113l.648-.992-.093-.059c-.086-.054-.16-.078-.223-.066a.435.435 0 0 0-.246.148l-.035-.023.226-.348zm.231 1.762-.015.035-.715-.363.02-.035.046.023c.04.02.074.028.106.028a.11.11 0 0 0 .062-.028.48.48 0 0 0 .078-.12l.457-.9a.438.438 0 0 0 .055-.136.125.125 0 0 0-.024-.066.22.22 0 0 0-.078-.067l-.046-.023.019-.04.707.364-.012.039-.047-.023a.198.198 0 0 0-.109-.028.09.09 0 0 0-.062.028c-.02.011-.04.05-.075.12l-.457.895a.773.773 0 0 0-.058.137c0 .023.008.047.023.07a.21.21 0 0 0 .082.067zm1.567-.992c.23.07.398.203.496.394a.783.783 0 0 1 .03.61.847.847 0 0 1-.327.43c-.211.136-.442.16-.7.07-.265-.09-.437-.246-.515-.473a.844.844 0 0 1 0-.555.786.786 0 0 1 .41-.46.728.728 0 0 1 .606-.016zm-.012.07c-.133-.043-.258-.012-.367.102-.098.09-.184.242-.25.449-.086.246-.106.441-.059.59a.302.302 0 0 0 .211.21c.074.028.14.032.203.012a.455.455 0 0 0 .219-.167c.07-.09.133-.211.187-.376.067-.19.098-.34.094-.445a.414.414 0 0 0-.066-.25.336.336 0 0 0-.172-.125zm1.527.383.504 1.105.16-.64c.02-.086.024-.153.004-.188-.023-.05-.078-.086-.16-.105l.012-.043.488.125-.008.039a.384.384 0 0 0-.136 0 .133.133 0 0 0-.067.05.588.588 0 0 0-.055.145l-.304 1.235-.04-.008-.695-1.488-.238.945c-.02.086-.016.148.02.187.03.04.07.067.12.078l.036.008-.012.04-.523-.13.008-.042c.082.023.144.019.183-.008.04-.024.07-.075.09-.153l.262-1.05-.024-.047a.3.3 0 0 0-.062-.098.227.227 0 0 0-.098-.047l.004-.039zm2.344 1.863-.004.043-.793-.07v-.043l.05.008a.232.232 0 0 0 .114-.016.107.107 0 0 0 .05-.05.433.433 0 0 0 .024-.141l.09-1.004a.81.81 0 0 0 0-.145c-.008-.023-.027-.039-.047-.054a.181.181 0 0 0-.097-.032l-.051-.007.004-.04.797.07-.008.04-.05-.004c-.044-.004-.083 0-.106.016a.092.092 0 0 0-.051.05c-.012.016-.02.063-.024.141l-.09 1a.432.432 0 0 0 0 .148c.008.02.02.04.047.055.02.02.055.027.098.031zm1.324-1.523.02.512h-.047a.493.493 0 0 0-.168-.305.397.397 0 0 0-.277-.113.248.248 0 0 0-.18.066.173.173 0 0 0-.067.14c0 .036.012.063.024.09.027.036.062.07.11.102.034.027.116.07.245.129.184.086.305.168.368.242a.423.423 0 0 1 .097.27.434.434 0 0 1-.144.332.553.553 0 0 1-.375.144.743.743 0 0 1-.137-.011 1.352 1.352 0 0 1-.168-.055.267.267 0 0 0-.086-.02.086.086 0 0 0-.059.024c-.027.015-.039.039-.054.07h-.04l-.015-.578h.047a.652.652 0 0 0 .195.367c.098.086.2.125.309.125a.296.296 0 0 0 .2-.074.213.213 0 0 0 .073-.16.219.219 0 0 0-.031-.106.336.336 0 0 0-.09-.093c-.039-.032-.11-.07-.21-.118a1.675 1.675 0 0 1-.302-.168.505.505 0 0 1-.144-.16.34.34 0 0 1-.05-.195.4.4 0 0 1 .128-.313.469.469 0 0 1 .332-.136c.047 0 .102.007.149.015.035.012.078.028.128.051.051.023.086.035.11.035.02-.004.031-.008.039-.02.015-.011.027-.042.035-.09zm1.887.945-.012.54-1.355.12v-.043l.05-.004a.184.184 0 0 0 .102-.035.123.123 0 0 0 .043-.054.81.81 0 0 0 0-.145l-.09-1.004a.697.697 0 0 0-.023-.144.11.11 0 0 0-.055-.047.219.219 0 0 0-.105-.012l-.051.004-.004-.043.812-.07.004.043-.066.004c-.043.003-.082.015-.102.035a.097.097 0 0 0-.043.058.384.384 0 0 0 0 .14l.086.974a.406.406 0 0 0 .028.148c.007.02.023.035.054.043a.56.56 0 0 0 .137-.004l.125-.012a.445.445 0 0 0 .203-.058.396.396 0 0 0 .125-.149.95.95 0 0 0 .09-.28zm1.2-.086-.532.102-.031.16c-.012.05-.02.094-.008.125.008.043.031.07.066.082a.463.463 0 0 0 .153 0l.011.039-.5.098-.008-.04c.051-.019.09-.05.118-.093.023-.043.058-.129.086-.25l.304-1.305.02-.004.781 1.125c.074.11.129.172.172.196a.15.15 0 0 0 .113.02l.008.042-.727.14-.007-.038.03-.008c.06-.012.099-.028.118-.047a.075.075 0 0 0 .016-.059.27.27 0 0 0-.016-.039c-.004-.004-.02-.03-.05-.074zm-.052-.074-.324-.477-.133.563zm1.926-.508.043-1.09.586-.21.016.038-.051.016a.224.224 0 0 0-.09.059.127.127 0 0 0-.027.066.5.5 0 0 0 .039.137l.343.949a.681.681 0 0 0 .06.133.13.13 0 0 0 .07.031c.027.004.062 0 .097-.016l.05-.015.016.039-.75.273-.015-.039.047-.015a.219.219 0 0 0 .093-.063.092.092 0 0 0 .024-.066c.004-.02-.012-.063-.035-.137l-.39-1.066-.075 1.511-.024.012-1.035-1.098.371 1.012c.024.07.043.113.051.129.024.031.051.05.094.063.035.011.086.007.156-.02l.012.04-.492.179-.016-.04.02-.003a.343.343 0 0 0 .082-.047.209.209 0 0 0 .047-.066.225.225 0 0 0 .003-.09.566.566 0 0 0-.035-.11l-.332-.91a.46.46 0 0 0-.062-.133c-.016-.015-.035-.023-.067-.03a.216.216 0 0 0-.105.015l-.043.015-.016-.039.59-.215zm2.149-.387.02.04-.712.363-.02-.04.044-.019a.276.276 0 0 0 .086-.07.105.105 0 0 0 .015-.07c0-.02-.02-.063-.055-.133l-.457-.895c-.035-.07-.058-.113-.078-.125a.092.092 0 0 0-.066-.023c-.027-.004-.063.008-.102.027l-.043.02-.02-.035.708-.364.023.035-.047.024a.186.186 0 0 0-.082.07c-.011.02-.023.043-.02.07 0 .02.02.063.056.133l.457.895c.035.07.062.113.078.125.015.015.035.023.07.023.027.004.063-.008.102-.027zm.742-2.214.289.445-.035.023a.604.604 0 0 0-.328-.168.479.479 0 0 0-.32.075.465.465 0 0 0-.173.214c-.039.09-.05.18-.03.274.023.121.07.242.148.36.074.113.152.21.246.284.09.075.18.118.273.125a.444.444 0 0 0 .29-.086.527.527 0 0 0 .187-.195.949.949 0 0 0 .093-.32l.07.11a.848.848 0 0 1-.116.308.809.809 0 0 1-.243.23.895.895 0 0 1-.418.153.702.702 0 0 1-.398-.075.81.81 0 0 1-.3-.273.783.783 0 0 1-.13-.41.838.838 0 0 1 .09-.426.866.866 0 0 1 .293-.312.918.918 0 0 1 .32-.13.553.553 0 0 0 .137-.038.076.076 0 0 0 .035-.055c.008-.024 0-.055-.015-.09zm1.601-.164.285.324c.051.062.09.097.114.11a.14.14 0 0 0 .07.003.364.364 0 0 0 .125-.082l.027.031-.593.516-.028-.031c.051-.047.086-.082.094-.11.008-.027.016-.05.004-.074-.004-.023-.031-.066-.086-.129l-.652-.746c-.059-.062-.09-.102-.114-.11a.097.097 0 0 0-.074-.003.398.398 0 0 0-.12.078l-.028-.031.539-.465c.137-.121.25-.203.332-.238a.418.418 0 0 1 .25-.032.387.387 0 0 1 .219.13.371.371 0 0 1 .093.292.571.571 0 0 1-.097.223l.613.148a.94.94 0 0 0 .164.028.18.18 0 0 0 .105-.043l.028.03-.363.317-.829-.203zm-.492-.567.442.508.046-.043a.748.748 0 0 0 .16-.176.205.205 0 0 0 .02-.16.377.377 0 0 0-.09-.176c-.078-.09-.152-.136-.234-.14-.074-.008-.16.03-.254.109zm1.25-1.172.465.407.023-.024c.067-.07.09-.144.07-.219a.546.546 0 0 0-.148-.238l.028-.031.605.523-.027.032a.772.772 0 0 0-.2-.098.279.279 0 0 0-.152.004.342.342 0 0 0-.129.11l.325.28a.463.463 0 0 0 .125.094c.015.008.039.008.058 0 .024-.008.043-.027.078-.058l.059-.07A.531.531 0 0 0 28.78 48a.524.524 0 0 0-.11-.34l.032-.031.324.371-.87 1-.036-.027.04-.04a.214.214 0 0 0 .05-.097c.008-.02.004-.043-.012-.07a.487.487 0 0 0-.097-.102l-.758-.66a.689.689 0 0 0-.102-.078c-.023-.012-.05-.016-.078-.012-.031.008-.062.031-.098.07l-.03.04-.032-.028.84-.969.34.297-.028.031a.585.585 0 0 0-.242-.085.362.362 0 0 0-.187.058.983.983 0 0 0-.172.164zm1.629-.832.34.25a.54.54 0 0 0 .137.078c.023.004.05 0 .074-.011a.436.436 0 0 0 .101-.106l.032.024-.457.629-.032-.024a.396.396 0 0 0 .067-.129.156.156 0 0 0-.008-.074.489.489 0 0 0-.117-.102l-.805-.586a.54.54 0 0 0-.137-.078.094.094 0 0 0-.07.016.343.343 0 0 0-.102.102l-.035-.024.395-.539c.129-.18.254-.281.37-.312a.356.356 0 0 1 .321.054.36.36 0 0 1 .153.227.446.446 0 0 1-.032.289 1.94 1.94 0 0 1-.195.316zm-.605-.441.535.39a.19.19 0 0 0 .031-.046.281.281 0 0 0 .062-.22c-.015-.07-.07-.14-.164-.21-.09-.066-.171-.094-.246-.086-.074.012-.136.055-.191.137zM28.914 45.633l.352-.711.03.02-.01.035a.303.303 0 0 0-.04.117c0 .027.012.047.027.066.016.02.063.047.141.086l.672.328c.125.059.207.09.258.09a.25.25 0 0 0 .144-.043.396.396 0 0 0 .121-.14.395.395 0 0 0 .04-.215.335.335 0 0 0-.079-.188c-.047-.055-.148-.117-.289-.187l-.562-.274a.36.36 0 0 0-.14-.047.136.136 0 0 0-.083.024.377.377 0 0 0-.082.117l-.043-.02.238-.472.036.015-.012.032a.18.18 0 0 0-.024.105c.004.035.012.063.043.09.012.02.055.043.11.07l.523.254c.16.078.274.149.332.203.063.059.102.14.121.254.024.11-.004.238-.074.38a.732.732 0 0 1-.18.253.43.43 0 0 1-.257.105.628.628 0 0 1-.305-.078l-.668-.328a.571.571 0 0 0-.156-.058.099.099 0 0 0-.067.023c-.023.016-.047.055-.074.113zm1.8-2.219a.763.763 0 0 1 .227-.242.336.336 0 0 1 .293-.02c.106.04.18.118.215.23.047.138.031.31-.047.513l-.28.726-.04-.016a.322.322 0 0 0 .035-.14.107.107 0 0 0-.031-.07.562.562 0 0 0-.137-.07l-.93-.356a.422.422 0 0 0-.148-.04c-.027 0-.047.012-.074.032a.441.441 0 0 0-.063.125l-.039-.016.262-.683c.063-.164.121-.274.176-.332a.391.391 0 0 1 .402-.098.276.276 0 0 1 .152.145c.036.07.047.175.028.312zm-.175.375a.587.587 0 0 0 .05-.234.27.27 0 0 0-.05-.149.359.359 0 0 0-.312-.117.222.222 0 0 0-.133.07.627.627 0 0 0-.117.211zm.082.031.461.176.05.02c.036.015.071.015.098.004.028-.012.047-.036.06-.075a.315.315 0 0 0 .023-.168.247.247 0 0 0-.067-.152.327.327 0 0 0-.14-.098.357.357 0 0 0-.2-.023.27.27 0 0 0-.16.086.71.71 0 0 0-.125.23zm.922-2.363.516.18-.305 1.324-.04-.012.009-.047a.212.212 0 0 0 .004-.109.105.105 0 0 0-.043-.059.496.496 0 0 0-.141-.043l-.977-.226a.645.645 0 0 0-.148-.024.129.129 0 0 0-.059.04.19.19 0 0 0-.043.093l-.011.051-.043-.008.183-.797.043.008-.015.067a.211.211 0 0 0-.004.109c.008.023.023.039.043.059a.454.454 0 0 0 .136.042l.95.22a.43.43 0 0 0 .148.019.084.084 0 0 0 .059-.04.417.417 0 0 0 .043-.128l.023-.125a.38.38 0 0 0 .008-.207.332.332 0 0 0-.102-.168 1.017 1.017 0 0 0-.238-.172zm.672-1.012.039.004-.098.797-.039-.008.004-.047a.236.236 0 0 0-.008-.109c-.008-.023-.027-.039-.05-.055a.608.608 0 0 0-.145-.027l-.996-.125a.626.626 0 0 0-.145-.004c-.02.004-.039.02-.058.043a.222.222 0 0 0-.032.098l-.007.05-.043-.003.097-.793.043.004-.007.05a.236.236 0 0 0 .011.11c.008.02.024.039.047.05.02.012.067.024.14.032l1 .12a.534.534 0 0 0 .15.009.098.098 0 0 0 .05-.047.15.15 0 0 0 .039-.098zm-1.422-1.855.531.008v.043a.587.587 0 0 0-.32.18.494.494 0 0 0-.117.304.481.481 0 0 0 .293.445c.11.047.234.075.375.078.136 0 .261-.015.375-.046.11-.032.199-.086.258-.157a.47.47 0 0 0 .093-.285.59.59 0 0 0-.058-.265.937.937 0 0 0-.215-.258h.133c.086.09.148.18.187.273.04.094.059.203.055.328 0 .16-.035.305-.106.43a.679.679 0 0 1-.285.289.778.778 0 0 1-.394.098.846.846 0 0 1-.414-.121.798.798 0 0 1-.297-.317.813.813 0 0 1-.102-.414c0-.11.027-.223.074-.34a.57.57 0 0 0 .043-.133.096.096 0 0 0-.023-.062.195.195 0 0 0-.09-.035zm.039-1.797a.776.776 0 0 1 .207-.594.793.793 0 0 1 .574-.23c.192 0 .364.058.508.172.2.152.293.363.293.636 0 .278-.09.489-.277.641a.807.807 0 0 1-.524.176.763.763 0 0 1-.57-.23.739.739 0 0 1-.211-.571zm.07-.012c0 .137.075.246.215.317.117.062.285.09.504.09.262 0 .457-.047.582-.137a.313.313 0 0 0 .129-.27.32.32 0 0 0-.055-.195.463.463 0 0 0-.234-.152 1.21 1.21 0 0 0-.41-.055c-.203 0-.356.02-.453.055a.46.46 0 0 0-.215.144.33.33 0 0 0-.063.203zm.032-1.765h.628v-.043a.342.342 0 0 0-.03-.164.248.248 0 0 0-.102-.11.428.428 0 0 0-.196-.058v-.04h.77v.04c-.145.011-.242.05-.29.117a.324.324 0 0 0-.07.215v.043h.47a.548.548 0 0 0 .148-.012c.02-.008.031-.027.05-.05a.186.186 0 0 0 .024-.102V34.8h.035v.8h-.035v-.05a.217.217 0 0 0-.023-.11.117.117 0 0 0-.055-.043c-.02-.011-.067-.015-.145-.015H31.11a.387.387 0 0 0-.148.015.098.098 0 0 0-.05.047.21.21 0 0 0-.024.106v.05h-.04V34.31h.438v.046a.433.433 0 0 0-.23.083.361.361 0 0 0-.102.187 1.12 1.12 0 0 0-.02.25zm1.41-2.336h.039v.8h-.04v-.05a.182.182 0 0 0-.027-.11.08.08 0 0 0-.05-.043.513.513 0 0 0-.145-.011h-1.004a.548.548 0 0 0-.148.011c-.02.008-.035.024-.055.051a.234.234 0 0 0-.02.102v.05h-.042v-.8h.043v.05c0 .043.007.079.02.106.015.02.034.035.058.047.02.008.066.012.144.012h1.004a.569.569 0 0 0 .149-.012c.02-.008.035-.028.05-.051a.186.186 0 0 0 .024-.102zm-.66-.903h.43a.623.623 0 0 0 .156-.011.138.138 0 0 0 .05-.055.394.394 0 0 0 .02-.145h.039v.786h-.04a.379.379 0 0 0-.019-.145.14.14 0 0 0-.05-.055.562.562 0 0 0-.157-.015h-.996a.562.562 0 0 0-.156.015.116.116 0 0 0-.05.055.394.394 0 0 0-.02.145h-.04v-.711c0-.188.012-.32.036-.407a.42.42 0 0 1 .144-.21.371.371 0 0 1 .242-.083c.114 0 .204.043.274.122.05.054.086.125.11.218l.515-.367a.506.506 0 0 0 .125-.102.181.181 0 0 0 .043-.109h.039v.485l-.695.492zm-.75 0h.668v-.062a.706.706 0 0 0-.028-.235.228.228 0 0 0-.105-.12.361.361 0 0 0-.196-.047c-.117 0-.203.027-.257.082-.055.054-.082.144-.082.265zm1.015-2.242v.543l.149.063a.29.29 0 0 0 .12.03.108.108 0 0 0 .098-.05c.012-.02.02-.07.028-.148h.039v.507h-.04a.221.221 0 0 0-.07-.136.82.82 0 0 0-.234-.13l-1.219-.546v-.023l1.258-.551a.792.792 0 0 0 .219-.13.166.166 0 0 0 .047-.109h.039v.739h-.04v-.028c0-.062-.007-.101-.027-.125-.011-.02-.027-.027-.05-.027-.012 0-.028.004-.043.008a.48.48 0 0 0-.082.035zm-.086.04-.523.23.523.234zm-1.027-1.548.95-.754h-.665c-.086 0-.148.012-.183.04-.043.035-.067.097-.067.18h-.035v-.505h.035c.012.067.024.11.04.13.007.023.03.042.062.054a.473.473 0 0 0 .148.015h1.277v.04l-1.277 1.035h.977c.09 0 .148-.02.18-.059a.226.226 0 0 0 .046-.14v-.036h.04v.543h-.04c-.004-.086-.02-.144-.054-.175-.032-.036-.09-.051-.172-.051H31.02l-.043.035a.254.254 0 0 0-.079.086c-.015.023-.02.058-.027.105h-.035zm0 0"/><path style="stroke:none;fill-rule:evenodd;fill:#b0b1b0;fill-opacity:1" d="M17.18 49.117c6.316 0 11.449-5.14 11.449-11.43 0-6.308-5.133-11.449-11.45-11.449-6.296 0-11.566 5.14-11.566 11.45 0 6.289 5.27 11.43 11.567 11.43zm0 0"/><path style="stroke:none;fill-rule:evenodd;fill:#fff;fill-opacity:1" d="M17.18 48.988c6.168 0 11.191-5.144 11.191-11.3 0-6.18-5.023-11.32-11.191-11.32-6.297 0-11.309 5.14-11.309 11.32 0 6.156 5.012 11.3 11.309 11.3zm0 0"/><path style="stroke:none;fill-rule:evenodd;fill:#eceded;fill-opacity:1" d="m20.664 38.453 4.875 1.418c-2.559-1.285-4.117-2.055-5.387-5.144l.13 2.441zm0 0"/><path style="stroke:none;fill-rule:evenodd;fill:#c5c7c8;fill-opacity:1" d="m19.656 34.023 1.93-3.003.074-.055 2.852-.738.093-.024.047.082.844 1.54c.133.245.25.488.371.722a19.689 19.689 0 0 1 1.59 4.336l-.016.09-1.793 3.078-.05.086-.094-.028-4.68-1.48-2.937 1.234-.184 6.059-.246-.008.184-6.137.004-.082.07-.03 3.055-1.282.085-.004 4.63 1.46 1.718-2.948a19.307 19.307 0 0 0-1.223-3.524c-.109-.234-.218-.472-.335-.71a24.436 24.436 0 0 0-.368-.712v-.004l-.797-1.449-2.71.703-1.903 2.961zM7.137 37.555c.113-1.032.293-2.055.586-3.059.293-1.008.703-2 1.285-2.965.558-.926 1.34-1.21 2.02-1.215.25 0 .488.04.69.094.212.059.387.137.52.215.172.105.278.227.278.332 0 .258 2.48 3.465 2.492 3.473l.031.043-.008.05-.562 4.235-.012.074-.07.027-5.098 1.864-.086-.235 5.027-1.836.547-4.109c-.293-.379-2.511-3.262-2.511-3.586 0-.016-.059-.059-.157-.121a1.847 1.847 0 0 0-.453-.184h-.004a2.217 2.217 0 0 0-.625-.086c-.609.004-1.304.258-1.808 1.094-.57.945-.969 1.918-1.262 2.906-.289.989-.46 1.996-.574 3.016zM14.914 27.809l.008-.008c.168-.094 1.293-.137 2.398-.121 1.117.02 2.239.101 2.371.27l.008.007-.187.137-.016.011c-.09-.101-1.125-.16-2.18-.175-1.07-.02-2.136.011-2.261.086zM9.594 44.395a10.508 10.508 0 0 0 2.136 1.714c.754.457 1.551.809 2.383 1.075l-.074.238a11.103 11.103 0 0 1-2.437-1.098 10.647 10.647 0 0 1-2.188-1.758zM25.387 43.738c-.575.684-1.25 1.426-1.996 2.063-.746.64-1.567 1.18-2.426 1.453l-.074-.238c.82-.262 1.613-.782 2.34-1.407.73-.625 1.398-1.355 1.964-2.03zm0 0"/><path style="stroke:none;fill-rule:evenodd;fill:#585959;fill-opacity:1" d="M21.89 27.43c-1.019.12-2.296.246-2.648.48.91 1.277 1.801 2.313 2.043 3.598 1.047-.13 2.832 0 4.254.648.125-.449.031-1.398-.172-2.148a11.27 11.27 0 0 0-3.476-2.578zm0 0"/><path style="stroke:none;fill-rule:evenodd;fill:#2a2723;fill-opacity:1" d="M19.242 27.91c.91 1.277 1.801 2.313 2.043 3.598 1.047-.13 2.832 0 4.254.648v-.129c-.644-.648-1.66-1.027-2.687-1.168-1.047-.117-1.43-.636-1.938-1.285-.516-.765-1.023-1.273-1.672-1.664zm0 0"/><path style="stroke:none;fill-rule:evenodd;fill:#eceded;fill-opacity:1" d="M17.441 48.984c.028 0 .055-.004.086-.004.059 0 .114-.003.172-.007.031 0 .067 0 .098-.004.055-.004.11-.008.16-.008a.958.958 0 0 1 .105-.008l.227-.023c.05-.004.098-.008.148-.016l.09-.012c.055-.004.11-.011.168-.02l.051-.007a10.907 10.907 0 0 0 3.16-.96c.032-.013.059-.028.09-.04.027-.016.05-.027.082-.043.059-.027.117-.059.176-.09l.023-.012a11.422 11.422 0 0 0 5.344-6.015l-2.082 1.094c-1.273 2.082-5.14 3.746-8.09 2.582-3.09 1.535-7.972-1.168-7.574-5.004-2.84-.914-3.484-3.477-3.484-5.918a4.772 4.772 0 0 0-.204.562 11.263 11.263 0 0 0-.316 2.657c0 6.156 5.012 11.3 11.309 11.3.09 0 .175-.004.261-.004zm0 0"/><path style="stroke:none;fill-rule:evenodd;fill:#dddcdc;fill-opacity:1" d="m17.438 48.984.074-.004c.07 0 .14-.003.21-.007h.044c.09-.004.175-.012.261-.02l.043-.004c.078-.004.157-.011.239-.02l.023-.003c3.883-.406 7.18-2.852 8.86-6.223l-1.653.504c-4.098 6.91-15.578 6.547-19.621-4.496a11.253 11.253 0 0 0 1.039 3.797c.023.047.043.094.066.137l.004.003c1.79 3.582 5.403 6.118 9.594 6.325.027 0 .047.004.074.004.067.003.137.003.203.007.094 0 .188.004.282.004.086 0 .172-.004.258-.004zm0 0"/><path style="stroke:none;fill-rule:evenodd;fill:#eceded;fill-opacity:1" d="m14.879 34.469 4.754-.508c0-.27-3.867-.27-4.754-.77-.906-.515-1.297-1.164-2.063-1.683h-.129zM9.738 40.516l3.715-1.543c-1.273.25-4.105.636-5.121.109zm0 0"/><path style="stroke:none;fill-rule:evenodd;fill:#585959;fill-opacity:1" d="M13.582 38.973c1.164 1.136 2.313 1.922 4.117 2.57 1.285-.648 2.7-1.824 3.586-2.84-.37-1.535-.758-3.2-1.394-4.742-1.813-.129-3.477-.129-5.145.25-.644 1.414-1.023 3.086-1.164 4.762zm0 0"/><path style="stroke:none;fill-rule:evenodd;fill:#2a2723;fill-opacity:1" d="M13.582 38.973c1.164 1.136 2.313 1.922 4.117 2.57 1.285-.648 2.7-1.824 3.586-2.84-.758.656-1.523 1.168-2.687 1.813-.52.25-1.93.379-2.832-.13-.77-.667-1.536-1.027-2.184-1.542zm0 0"/><path style="stroke:none;fill-rule:evenodd;fill:#585959;fill-opacity:1" d="M8.367 30.605c.102.754.215 1.723.332 2.07 1.29-.777 2.703-1.413 3.989-1.167.269-1.285 1.285-2.7 2.699-3.598-.684-.344-1.778-.59-2.645-.637a11.377 11.377 0 0 0-4.375 3.332zm0 0"/><path style="stroke:none;fill-rule:evenodd;fill:#2a2723;fill-opacity:1" d="M8.367 30.605c.102.754.215 1.723.332 2.07 1.29-.777 2.703-1.413 3.989-1.167v-.246c-.899 0-2.043 0-2.95.386-.52.122-.906-.14-1.039-.52 0-.105-.086-.386-.187-.698-.055.058-.098.117-.145.175zm0 0"/><path style="stroke:none;fill-rule:evenodd;fill:#585959;fill-opacity:1" d="M6.434 41.195c.336.97.804 1.867 1.37 2.782.637.386 1.415.636 1.934.765-.261-1.285-.39-3.199.137-4.355-1.043-.778-1.82-1.414-2.59-2.957-.492.629-1.004 1.394-1.273 2.02.093.597.234 1.183.422 1.745zm0 0"/><path style="stroke:none;fill-rule:evenodd;fill:#2a2723;fill-opacity:1" d="M7.793 43.973c.625.336 1.484.656 1.945.77v-.13c-1.933-1.035-3.347-3.07-3.597-5.39 0 .066-.063.16-.125.25a11.213 11.213 0 0 0 1.777 4.5zM20.574 48.45c.563-.52.996-1.294 1.23-1.645-1.913-.25-3.206-.637-4.226-1.414-1.039.648-2.441 1.414-3.996 1.804.227.438.45.977.836 1.453.879.22 1.809.34 2.762.34a10.97 10.97 0 0 0 3.394-.539zm0 0"/><path style="stroke:none;fill-rule:evenodd;fill:#585959;fill-opacity:1" d="M28.371 37.773a6.191 6.191 0 0 0-1.035-1.382c-.758 1.675-1.277 2.582-2.313 3.328.258 1.047.141 2.71 0 4.258a5.49 5.49 0 0 0 1.598-.262 11.26 11.26 0 0 0 1.75-5.942zm0 0"/><path style="stroke:none;fill-rule:evenodd;fill:#2a2723;fill-opacity:1" d="M26.887 43.273c-.235.055-.504.055-.7.055-.648.129-.507-.262-.648-.898 0-.887-.121-1.914-.375-2.82-.14 0-.14.109-.14.109.257 1.047.14 2.71 0 4.258a5.49 5.49 0 0 0 1.597-.262c.094-.145.176-.293.266-.442zm0 0"/><path style="stroke:none;fill-rule:evenodd;fill:#1b1918;fill-opacity:1" d="M14.21 29.715h.509v1.64h-.508zm.88 1.64v-1.64h.844c.156 0 .277.015.355.043a.385.385 0 0 1 .203.148.495.495 0 0 1 .02.5.483.483 0 0 1-.344.227c.066.02.11.039.137.058a.6.6 0 0 1 .082.086c.031.047.058.078.07.102l.246.476h-.574l-.27-.5a.37.37 0 0 0-.093-.125.188.188 0 0 0-.121-.039h-.047v.664zm.508-.976h.214a.614.614 0 0 0 .133-.02.13.13 0 0 0 .082-.05.175.175 0 0 0 .035-.098.173.173 0 0 0-.05-.121c-.035-.027-.098-.043-.192-.043h-.222zm2.273.707h-.578l-.078.27h-.516l.617-1.641h.551l.617 1.64h-.53zm-.105-.356-.18-.59-.18.59zm.882-1.015h.473l.617.91v-.91h.48v1.64h-.48l-.617-.898v.898h-.473zm0 0"/></svg>