<svg height="364.629" viewBox="0 0 23.346 30.853" width="274.251" xmlns="http://www.w3.org/2000/svg"><g fill-rule="evenodd"><g fill="#fff"><path d="M11.673 27.663c.447-.309 1.003-.671 1.65-1.05a27.92 27.92 0 0 1 2.962-1.497c.754-.326 1.381-.636 1.904-.938.505-.291.91-.575 1.236-.857.268-.232.477-.466.645-.708.169-.242.294-.487.393-.744.453-1.18.397-3.162.39-3.36l-.008-13.707H2.502L2.494 18.51c-.007.198-.064 2.18.39 3.36.099.257.224.502.392.744.169.242.378.476.646.708.326.282.73.566 1.236.857.523.302 1.15.612 1.903.938 1.152.5 2.143 1.02 2.963 1.498.647.378 1.203.74 1.65 1.05zM10.29 6.891a.369.369 0 1 0 0 .738.369.369 0 0 0 0-.738zm.597.126c.006.012.016.327.016.327l.857-.348s.026-.041.01-.063c-.018-.022-.044-.012-.044-.012zm-.597.07a.174.174 0 1 0 0 .347.174.174 0 0 0 0-.348z"/><path d="M17.215 27.318c-3.036 1.317-4.815 2.84-4.848 2.869-.217.21-.519.44-.756.64l-.682-.682c-.196-.162-.956-.768-2.192-1.498-.724-.427-1.6-.892-2.606-1.329a20.716 20.716 0 0 1-2.18-1.082 10.246 10.246 0 0 1-1.561-1.094 6.478 6.478 0 0 1-1.104-1.217 6.22 6.22 0 0 1-.689-1.322c-.227-.59-.365-1.273-.448-1.92a16.525 16.525 0 0 1-.12-2.285V.026h23.288v18.372c.007.356.008 1.283-.12 2.285-.083.647-.221 1.33-.448 1.92-.179.465-.4.902-.689 1.322-.29.42-.65.823-1.104 1.217-.427.37-.94.732-1.56 1.094-.605.353-1.323.71-2.181 1.082zm-5.542 2.728s1.993-1.718 5.367-3.181c3.373-1.464 4.58-2.704 5.2-4.316.62-1.612.517-4.13.517-4.13V.513H.59v17.904s-.103 2.519.517 4.13c.62 1.613 1.827 2.853 5.2 4.317 3.374 1.463 5.367 3.18 5.367 3.18z"/><path d="M8.544 3.303H7.97l.235-.562.003-.007.226-.543.009-.02.2-.479.078-.187.011-.027a.177.177 0 0 1 .166-.095h.632l-.09.213.041.096.2.48.008.02.227.542.003.007.235.562H9.58l-.113-.271h-.81zm6.943-1.92h.517l.745 1.03v-.966c.001-.035.03-.063.065-.064h.517V3.239c0 .035-.03.063-.064.064h-.518l-.745-1.03v.966c0 .035-.03.063-.064.064h-.518V1.447c.001-.035.03-.063.065-.064zm-4.698 0H11.735a.732.732 0 0 1 0 1.463H11.305v.457h-.582V1.45c0-.037.03-.066.066-.066zm.516.434v.595h.253a.298.298 0 0 0 0-.595h-.005zm1.976 1.486h-.573l.235-.562.003-.007.226-.543.008-.02.2-.479.079-.187.01-.027a.177.177 0 0 1 .167-.095h.632l-.09.213.04.096.201.48.008.02.227.542.003.007.234.562h-.573l-.113-.271h-.81zm.519-1.242-.046.11-.009.02-.184.441h.477l-.184-.44-.008-.02zm-6.467.987c-.142.152-.431.255-.766.255-.233 0-.445-.05-.6-.132l.18-.44c.12.057.268.107.42.107.357 0 .335-.272.335-.272v-.741h-.408l.185-.442h.681c.068 0 .123.046.123.102v1.08c0 .395-.15.483-.15.483zm1.729-.987-.046.11-.008.02-.184.441H9.3l-.184-.44-.008-.02zM10.29 6.891a.369.369 0 1 0-.001.738.369.369 0 0 0 0-.738zm.596.126c.006.012.016.327.016.327l.857-.348s.026-.041.01-.063c-.018-.022-.044-.012-.044-.012zm-.597.07a.174.174 0 1 0 0 .347.174.174 0 0 0 0-.348z"/></g><path d="M6.054 15.919a1.953 1.953 0 0 1 1.954 1.953 1.953 1.953 0 1 1-1.954-1.953zM8.886 5.365V6.6c.321-.178.667-.37.787-.442.245-.146.428-.045.428-.045s.485.327.549.349c.064.021.166-.056.194-.159.027-.102.133-.046.133-.046s.243.19.298.245a.202.202 0 0 0 .123.057h1.644c.052 0 .108.047.108.047s.28.148.413.257c.133.108-.059.186-.059.186l-2.589 1.268c-.493.222-.183.644-.183.644l1.224 1.308 1.677-2.656.508-.804c.053-.075.143-.188.276-.304v-1.14zm2.339 14.901H10.409a.22.22 0 0 0-.22.22v3.909h1.036v-1.449h.953l.297-.858h-1.25v-.87h1.584l.33-.952h-.794zm-2.34-5.21v.094h.049zm0 1.316v2.594c.113.032.216.027.216.027h.497c.136-.26.342-.65.47-.872.206-.355.044-.639.044-.639l-.886-1.755-.325.66zm0 3.213v.681h.048a.22.22 0 0 1 .22.22v2.323c0 .849-.267 1.037-.267 1.037v1.508l.035.018a27.816 27.816 0 0 1 2.305 1.32c.154.098.303.196.447.293a24.03 24.03 0 0 1 1.366-.857c.407-.237.866-.49 1.378-.751V23.81h-.429l-.202.584h-1.02l.417-1.209.006-.016.403-1.166.015-.042.356-1.03.14-.403.02-.058c.033-.077.115-.205.294-.205v-.68h-.735v-.1h-1.46s-.218.015-.342.192c-.124.177.09-.685.5-.685h.683l-1.4-2.701h-.64l.559.384-.627.316.77.422-.968.601-.47.978h.687c.409 0 .623.862.499.685a.495.495 0 0 0-.341-.192h-1.46v.1zm5.532-.607v-2.044l-.58-.642h-.612l.558.384-.626.316.769.422-.761.473.565 1.106h.523s.073.004.164-.015z" fill="#e30016"/><path d="M11.673 28.349a26.453 26.453 0 0 1 4.834-2.718c1.55-.672 2.583-1.278 3.285-1.886.613-.532.96-1.071 1.193-1.676.52-1.35.428-3.592.427-3.598l-.005-.053V4.24H1.94v14.178l-.005.053c0 .006-.093 2.248.427 3.598.232.605.58 1.144 1.193 1.676.702.608 1.736 1.214 3.285 1.886a26.453 26.453 0 0 1 4.834 2.718zM8.543 3.303H7.97l.235-.562.003-.007.226-.543.009-.02.2-.479.078-.187.011-.027a.177.177 0 0 1 .166-.095h.632l-.09.213.041.096.2.48.008.02.227.542.003.007.235.562H9.58l-.113-.271h-.81zm6.944-1.92h.517l.745 1.03v-.966c.001-.035.03-.063.065-.064h.517V3.239c0 .035-.03.063-.064.064h-.518l-.745-1.03v.966c0 .035-.03.063-.064.064h-.518V1.447c.001-.035.03-.063.065-.064zm-4.698 0H11.735a.732.732 0 0 1 0 1.463H11.305v.457h-.582V1.45c0-.037.03-.066.066-.066zm.516.434v.595h.253a.298.298 0 0 0 0-.595h-.005zm1.976 1.486h-.573l.235-.562.003-.007.226-.543.008-.02.2-.479.079-.187.01-.027a.177.177 0 0 1 .167-.095h.632l-.09.213.04.096.201.48.008.02.227.542.003.007.234.562h-.573l-.113-.271h-.81zm.519-1.242-.046.11-.009.02-.184.441h.477l-.184-.44-.008-.02zm-6.467.987c-.142.152-.431.255-.766.255-.233 0-.445-.05-.6-.132l.18-.44c.12.057.268.107.42.107.357 0 .335-.272.335-.272v-.741h-.408l.185-.442h.681c.068 0 .123.046.123.102v1.08c0 .395-.15.483-.15.483zm1.729-.987-.046.11-.008.02-.184.441H9.3l-.184-.44-.008-.02zm2.611 27.985s1.993-1.718 5.367-3.181c3.373-1.464 4.58-2.704 5.2-4.316.62-1.612.517-4.13.517-4.13V.513H.59v17.904s-.103 2.519.517 4.13c.62 1.613 1.827 2.853 5.2 4.317 3.374 1.463 5.367 3.18 5.367 3.18z" fill="#0f0d04"/><path d="M20.571 6.055h-4.885c-.924 0-1.392.536-1.545.754l-.508.804-1.677 2.656-1.224-1.308s-.31-.422.183-.644l2.59-1.268s.191-.078.058-.186c-.134-.109-.413-.257-.413-.257s-.056-.047-.108-.047h-1.644s-.07-.003-.123-.057c-.055-.054-.298-.245-.298-.245s-.106-.056-.133.046c-.028.103-.13.18-.194.159-.064-.022-.549-.35-.549-.35s-.183-.1-.428.046c-.245.146-1.43.797-1.43.797s-.238.14-.238.518V11l-.348 1.191s-.112.275.037.533c.074.128.662 1.284 1.24 2.425H6.282l-.357-.285h-.127v.36H5.18l-.356.718a2.288 2.288 0 0 1 3.497 1.62l.307-.622c.002-.006.062-.218-.02-.3-.082-.083-.86-.936-.86-.936h.517l.636.683.325-.66c.48.948.886 1.754.886 1.754s.162.284-.043.639c-.129.223-.335.612-.471.872H9.1s-.33.017-.455-.199v.348h-.612s-.434 0-.412.682c0 0 .226-.239.45-.239h1.6v-.099h1.46s.217.015.34.192c.125.177-.09-.685-.498-.685h-.688l.471-.978.967-.601-.769-.422.627-.316-.558-.384h.638l1.4 2.7h-.682c-.41 0-.624.863-.5.686.124-.177.341-.192.341-.192h1.46v.1h1.6c.224 0 .45.238.45.238.022-.682-.412-.682-.412-.682h-.612v-.348c-.125.216-.454.199-.454.199h-.523l-.565-1.106.76-.473-.768-.422.626-.316-.558-.384h.612l1.725 1.907h.714l-2.438-2.695h.552l2.438 2.695h.74l-3.135-3.464h.552l3.134 3.464h.937l-3.695-4.084h1.835l-1.198-1.198h-1.72l-.388-.428h1.893l.891-1.197h-3.38l.27-.428h3.429l.891-1.198H14.32l.27-.428h3.612l.892-1.197h-3.747l.27-.428h3.795zm-10.282.836a.369.369 0 1 0 0 .738.369.369 0 0 0 0-.738zm.597.126c.006.012.016.327.016.327l.857-.348s.026-.041.01-.063c-.018-.022-.044-.012-.044-.012zm-.597.07a.174.174 0 1 0 0 .347.174.174 0 0 0 0-.348zM8.886 23.846c-.252.326-.768.549-1.364.549-.416 0-.793-.109-1.068-.285l.32-.945c.213.122.477.23.748.23.636 0 .596-.586.596-.586v-1.592h-.726l.329-.95h1.213a.22.22 0 0 1 .22.22v2.322c0 .849-.268 1.037-.268 1.037zm4.9.549h-1.02l.417-1.209.006-.016.403-1.166.015-.042.356-1.03.14-.403.02-.058c.033-.077.115-.205.294-.205h1.126l-.158.458.071.207.357 1.031.014.042.403 1.166.006.016.418 1.209h-1.021l-.202-.584h-1.443zm.924-2.67-.082.237-.015.042-.328.948h.85l-.329-.948-.014-.042zm-3.485-1.459H10.409a.22.22 0 0 0-.22.22v3.909h1.036v-1.449h.953l.297-.858h-1.25v-.87h1.584l.33-.952h-.794z" fill="#0f0d04"/><path d="M11.673 27.663c.447-.309 1.003-.671 1.65-1.05a27.92 27.92 0 0 1 2.962-1.497c.754-.326 1.381-.636 1.904-.938.505-.291.91-.575 1.236-.857.268-.232.477-.466.645-.708.169-.242.294-.487.393-.744.453-1.18.397-3.162.39-3.36l-.008-13.707H2.502L2.494 18.51c-.007.198-.064 2.18.39 3.36.099.257.224.502.392.744.169.242.378.476.646.708.326.282.73.566 1.236.857.523.302 1.15.612 1.903.938 1.152.5 2.143 1.02 2.963 1.498.647.378 1.203.74 1.65 1.05zm9.74-9.184v.15c0 .002.004.11.006.29-.002.726-.057 2.172-.434 3.15-.232.605-.58 1.144-1.193 1.676-.702.608-1.736 1.214-3.285 1.886a26.453 26.453 0 0 0-4.834 2.718A26.453 26.453 0 0 0 6.84 25.63c-1.549-.672-2.583-1.278-3.285-1.886-.613-.532-.96-1.071-1.193-1.676-.376-.978-.432-2.424-.434-3.15.002-.18.006-.288.006-.29v-.158l.006-.053V4.24h19.468v14.178l.005.053z" fill="#b09438"/></g></svg>