<svg xml:space="preserve" width="513.582" height="700" xmlns="http://www.w3.org/2000/svg"><g transform="translate(-602.296 552.374) scale(.82558)"><rect style="fill:#041a54;fill-opacity:1;fill-rule:evenodd;stroke-width:1.00695" width="554.255" height="847.888" x="763.458" y="-669.073" rx="0" ry="0"/><rect style="fill:#fff;fill-rule:evenodd;stroke-width:.929873" width="503.04" height="796.673" x="789.065" y="-644.998" rx="0" ry="0"/><rect style="fill:#da3641;fill-opacity:1;fill-rule:evenodd;stroke-width:.856924" width="453.959" height="749.726" x="813.606" y="-620.998" rx="0" ry="0"/><rect style="fill:#fff;fill-rule:evenodd;stroke-width:.808422" width="421.455" height="718.722" x="829.858" y="-605.998" rx="0" ry="0"/></g><path style="fill:#fff;fill-opacity:1;fill-rule:nonzero;stroke:none;stroke-width:1.24446" d="M1040.527 595.572 729.485 354.25l33.94-102.41-32.298-95.63 309.4-258.37 309.401 258.37-32.298 95.63 33.94 102.41z" transform="matrix(.82558 0 0 -.82558 -602.249 553.676)"/><g style="fill:#041a54;fill-opacity:1"><path style="fill:#041a54;fill-opacity:1;fill-rule:nonzero;stroke:none;stroke-width:1.60688" d="M1387.37 366.354 1221.04 493.787l141.781-78.074 24.547 152.754 24.549-152.754 141.781 78.074z" transform="matrix(.61919 0 0 .61919 -602.249 -143.94)"/><path d="m1021.824 306.385-53.899 122.878 19.759 25.637z" style="fill:#041a54;fill-opacity:1;fill-rule:nonzero;stroke:none;stroke-width:1.20516" transform="matrix(.82558 0 0 -.82558 -602.249 553.676)"/><path style="fill:#041a54;fill-opacity:1;fill-rule:nonzero;stroke:none;stroke-width:1.60688" d="m1234.63 852.418-106.972 68.43 12.948 90.17 86.261 64.712 16.893 34.391 19.394-42.234 124.215-50.493 124.217 50.493 19.395 42.234 16.892-34.39 86.262-64.713 12.947-90.17-106.973-68.43 69.368 67.2-7.815 68.046-69.096 45.73-141.197-69.87 82.822-70.128 22.02-36.29-39.932 24.41h-137.818l-39.932-24.41 22.02 36.29 82.82 70.127-141.195 69.871-69.096-45.73-7.814-68.047zM1356.092 447.053l-210.865 108.181 194.074-68.51 48.068 260.471 48.07-260.47 194.075 68.51-210.866-108.182-31.279 198.013z" transform="matrix(.61919 0 0 .61919 -602.249 -143.94)"/><path d="m975.075 319.705 4.98-92.184-25.175 70.134-74.166 9.134-5.128 27.004-44.7 26.651z" style="fill:#041a54;fill-opacity:1;fill-rule:nonzero;stroke:none;stroke-width:1.23922" transform="matrix(.82558 0 0 -.82558 -602.249 553.676)"/><path d="m745.495 340.079 31.493-99.604-29.808-90.507 60.322-46.412-34.075 53 27.494 82.844-29.794 93.943 46.696 63.072z" style="fill:#041a54;fill-opacity:1;fill-rule:nonzero;stroke:none;stroke-width:1.20516" transform="matrix(.82558 0 0 -.82558 -602.249 553.676)"/><path d="m794 330.188 29.42-88.108-26.993-83.35L830.317 100l-10.406 63.753 117.563 65.815-110.552-37.982 15.571 49.108-32.167 93.156 8.24 31.685z" style="fill:#041a54;fill-opacity:1;fill-rule:nonzero;stroke:none;stroke-width:1.12385" transform="matrix(.82558 0 0 -.82558 -602.249 553.676)"/><path d="m881.888 245.336 41.628-3.066-66.104-21.55 6.634 17.534-30.67 82.769z" style="fill:#041a54;fill-opacity:1;fill-rule:nonzero;stroke:none;stroke-width:1.20516" transform="matrix(.82558 0 0 -.82558 -602.249 553.676)"/><path style="fill:#041a54;fill-opacity:1;fill-rule:nonzero;stroke:none;stroke-width:1.60688" d="m1262.195 1096.824 8.387 41.735 116.787 90.537 116.79-90.537 8.386-41.735-58.406 44.117h-133.537z" transform="matrix(.61919 0 0 .61919 -602.249 -143.94)"/><path d="m1105.98 319.705-4.98-92.184 25.175 70.134 74.166 9.134 5.128 27.004 44.7 26.651z" style="fill:#041a54;fill-opacity:1;fill-rule:nonzero;stroke:none;stroke-width:1.23922" transform="matrix(.82558 0 0 -.82558 -602.249 553.676)"/><path d="m1335.56 340.079-31.493-99.604 29.808-90.507-60.321-46.412 34.074 53-27.494 82.844 29.794 93.943-46.696 63.072z" style="fill:#041a54;fill-opacity:1;fill-rule:nonzero;stroke:none;stroke-width:1.20516" transform="matrix(.82558 0 0 -.82558 -602.249 553.676)"/><path d="m1287.056 330.188-29.422-88.108 26.994-83.35-33.89-58.731 10.406 63.753-117.563 65.815 110.552-37.982-15.571 49.108 32.168 93.156-8.24 31.685z" style="fill:#041a54;fill-opacity:1;fill-rule:nonzero;stroke:none;stroke-width:1.12385" transform="matrix(.82558 0 0 -.82558 -602.249 553.676)"/><path d="m1199.168 245.336-41.63-3.066 66.105-21.55-6.634 17.534 30.67 82.769z" style="fill:#041a54;fill-opacity:1;fill-rule:nonzero;stroke:none;stroke-width:1.20516" transform="matrix(.82558 0 0 -.82558 -602.249 553.676)"/></g></svg>