<?xml version="1.0" encoding="UTF-8"?>
<svg xmlns="http://www.w3.org/2000/svg" version="1.1" xmlns:cc="http://creativecommons.org/ns#" xmlns:dc="http://purl.org/dc/elements/1.1/" xmlns:i="http://ns.adobe.com/AdobeIllustrator/10.0/" xmlns:inkscape="http://www.inkscape.org/namespaces/inkscape" xmlns:rdf="http://www.w3.org/1999/02/22-rdf-syntax-ns#" xmlns:sodipodi="http://sodipodi.sourceforge.net/DTD/sodipodi-0.dtd" xmlns:svg="http://www.w3.org/2000/svg" viewBox="0 0 600 600">
  <!-- Generator: Adobe Illustrator 29.8.1, SVG Export Plug-In . SVG Version: 2.1.1 Build 2)  -->
  <defs>
    <style>
      .st0, .st1, .st2, .st3 {
        fill-rule: evenodd;
      }

      .st0, .st4 {
        fill: #00619e;
      }

      .st1 {
        fill: #fff;
      }

      .st2 {
        fill: #fc0;
      }

      .st3 {
        fill: #cc001c;
      }
    </style>
  </defs>
  <g id="svg2" inkscape:version="0.48.4 r9939">
    <sodipodi:namedview id="namedview15" bordercolor="#666666" borderopacity="1" gridtolerance="10" guidetolerance="10" inkscape:current-layer="svg2" inkscape:cx="67.881091" inkscape:cy="50.528643" inkscape:pageopacity="0" inkscape:pageshadow="2" inkscape:showpageshadow="false" inkscape:window-height="844" inkscape:window-maximized="1" inkscape:window-width="1600" inkscape:window-x="-4" inkscape:window-y="-4" inkscape:zoom="1" objecttolerance="10" pagecolor="#ffffff" showgrid="false"/>
    <g id="g10">
      <g id="g12">
        <path id="path14" class="st0" d="M299.9999,0c165.685,0,300.0001,134.3151,300.0001,300.0001s-134.3151,299.9999-300.0001,299.9999S0,465.6851,0,300.0001,134.3149,0,299.9999,0" inkscape:connector-curvature="0"/>
        <path id="path18" class="st1" d="M299.9999,23.7672c152.5591,0,276.2329,123.6738,276.2329,276.2329s-123.6738,276.2326-276.2329,276.2326S23.7673,452.5592,23.7673,300.0001,147.4408,23.7672,299.9999,23.7672" inkscape:connector-curvature="0"/>
        <path id="path20" class="st2" d="M299.9999,209.0995l21.1069,65.3894,68.7124-.1328-55.667,40.2819,21.3591,65.3075-55.5114-40.4952-55.5114,40.4952,21.3591-65.3075-55.667-40.2819,68.7111.1328,21.1082-65.3894" inkscape:connector-curvature="0"/>
        <path id="path22" class="st3" d="M68.8366,408.4659l115.4692-93.0163c2.0378,15.3999,7.0727,29.8553,14.5077,42.7518l-108.5202,87.4193c-8.1437-11.7092-15.3341-24.1308-21.4566-37.1547ZM135.4539,104.8127l119.6759,87.4179c-14.1227,5.8868-26.8408,14.4648-37.5129,25.0981l-112.5297-82.1979c9.2584-10.9338,19.4176-21.0774,30.3667-30.3181ZM494.9123,135.1308l-112.5307,82.1979c-10.6708-10.6333-23.3903-19.2112-37.5116-25.0981l119.6746-87.4179c10.9486,9.242,21.1096,19.383,30.3677,30.3181ZM509.7058,445.6206l-108.5194-87.4193c7.4363-12.8965,12.4699-27.3519,14.5064-42.7518l115.4701,93.0163c-6.1242,13.0239-13.3097,25.4469-21.457,37.1547" inkscape:connector-curvature="0"/>
        <path id="path24" class="st0" d="M453.651,503.8939l-115.9531-93.4076c14.6231-4.988,27.9368-12.7999,39.2972-22.7812l108.6576,87.529c-9.8391,10.4197-20.5434,20.0114-32.0018,28.6598ZM82.6674,165.9989l112.6741,82.3039c-6.622,13.3808-10.7513,28.2118-11.7884,43.8894l-120.3019-87.8754c5.4113-13.3714,11.9163-26.1834,19.4161-38.3178ZM536.7478,204.3168l-120.3011,87.8754c-1.037-15.6789-5.1691-30.5086-11.7884-43.8894l112.6743-82.3039c7.4967,12.1345,14.0033,24.9465,19.4152,38.3178ZM114.3466,475.2341l108.6567-87.529c11.3617,9.9813,24.6755,17.7919,39.2985,22.7812l-115.9531,93.4076c-11.4583-8.6494-22.1636-18.2401-32.0022-28.6598" inkscape:connector-curvature="0"/>
        <path id="path26" class="st4" d="M260.5954,146.3731l-5.1838-15.7567c-7.9716,2.0405-15.9432,2.0821-23.9135,0l-5.1852,15.7567c-6.0813,2.0727-12.1613,2.2981-18.2413,0l26.6476-84.4705h20.1021l24.5185,84.4705c-6.2477,2.1599-12.4954,2.2122-18.7444,0ZM244.0579,84.9011l-8.5471,31.4088c5.2616,1.0142,10.5219.9861,15.7822,0l-7.2351-31.4088ZM311.4073,60.9099c10.5045,0,18.5713,2.2525,24.1965,6.7548,5.6252,4.5037,8.4371,11.8782,8.4371,22.1238,0,10.326-2.8455,17.7852-8.5391,22.3693-5.6936,4.5841-12.4202,6.8782-22.9824,6.8782h-6.7535v27.3371c-6.347,2.1613-12.6952,2.0835-19.0409,0V63.1409c3.4572-.8251,10.6588-1.4127,14.5158-1.7346s7.2512-.4964,10.1664-.4964ZM310.6533,77.3937c-1.1538,0-.8734.0443-1.9909.1248-1.1149.0792-2.0821.165-2.8965.2469v24.7882h4.9812c5.4897,0,6.4476-.9163,9.2219-2.7274,2.773-1.8125,4.1683-5.2053,4.1683-10.1624,0-2.3961-.3568-4.3802-1.0679-5.9485-.711-1.5696-1.7306-2.8347-3.0494-3.7805-1.3174-.9472-2.9353-1.6139-4.8296-1.9828-1.8956-.3676-2.2337-.5581-4.5372-.5581ZM351.1378,146.3731V61.1943h49.9989v18.0052h-29.8969v15.4911h22.203v17.6537h-22.5571v34.0289c-6.5817,2.0754-13.1648,2.1666-19.7479,0" inkscape:connector-curvature="0"/>
        <path id="path28" class="st4" d="M198.6015,488.7064c4.3909,2.5349,7.2539,5.361,8.5887,8.4791,1.3349,3.1171.8465,6.6781-1.465,10.6822-2.3316,4.0368-5.2039,6.2641-8.6182,6.6833-3.4143.4182-7.3303-.6482-11.7494-3.1994l-2.0821-1.2022-6.4878,11.2378-6.6287-3.8267,19.1012-33.0848c1.6314.5114,3.2909,1.1686,4.9799,1.9714,1.689.8035,3.1433,1.5565,4.3614,2.2592ZM195.3066,495.3949c-.4816-.2784-.9659-.5361-1.4516-.7735-.4856-.2379-.9082-.4387-1.2664-.6021l-5.593,9.6876,2.0821,1.2022c2.2941,1.3248,4.2273,1.9667,5.7983,1.9269,1.5723-.0398,2.9166-1.0287,4.0354-2.9657.5407-.937.8398-1.798.8962-2.5835.0577-.7846-.0832-1.5224-.4213-2.2126-.3381-.6906-.8613-1.3378-1.571-1.9404-.7097-.6033-1.5455-1.1829-2.5088-1.7388ZM221.3371,542.376c.169-1.3787.3139-2.8084.436-4.2878.1207-1.4788.2495-2.9551.3864-4.4282-5.3059-.3819-9.4755-1.9552-12.2821-4.9622-.9257,1.1544-1.8581,2.3058-2.7985,3.454-.9391,1.1487-1.8272,2.2776-2.6644,3.3875l-7.3692-2.9776c2.7462-3.3943,5.3139-6.5198,7.7033-9.3747,2.388-2.8555,4.6767-5.5303,6.8662-8.0238,2.1894-2.494,4.3037-4.847,6.3456-7.0589,2.0392-2.2125,4.0931-4.3486,6.1605-6.4091l6.7776,2.7381c.0255,2.9058.0121,5.8667-.0429,8.881-.0537,3.0149-.1583,6.1795-.3166,9.4937-.157,3.315-.3689,6.8288-.6346,10.5423-.2656,3.7133-.589,7.7454-.97,12.0956,0,0-7.5973-3.0699-7.5973-3.0699ZM224.0605,511.1425c-.3609.4571-.8747,1.0733-1.5415,1.8504-.6654.7762-1.4341,1.6723-2.3021,2.6884-.8693,1.0162-1.8259,2.1387-2.8683,3.366-1.0437,1.2279-2.1224,2.5212-3.2359,3.8812,2.3477,2.3582,5.3649,3.5106,8.9617,3.6206.1435-1.7518.2737-3.4282.3917-5.0298.1181-1.6014.2093-3.0725.275-4.4135.0657-1.3406.1288-2.5223.1892-3.5432.059-1.0219.1033-1.8279.1301-2.4201ZM253.8232,511.2799c4.9705,1.1477,8.5471,3.0358,10.7272,5.6629,2.1787,2.6271,2.7784,6.0664,1.7964,10.3175-.6118,2.6523-1.6421,4.6814-3.0923,6.0884-1.4489,1.4065-3.2868,2.3508-5.5125,2.8319.4508,1.099.9029,2.3414,1.355,3.7281.4521,1.3861.8827,2.8252,1.2946,4.3172.4105,1.4914.7848,3.0326,1.1229,4.6221.3381,1.5895.6346,3.1406.8895,4.6542l-8.366-1.9312c-1.0343-4.4429-3.2654-14.7688-4.8404-18.4482,3.3244-1.9709,8.5874-3.8889,9.4648-7.694.4293-1.8531.1194-3.3115-.927-4.3763-1.0464-1.0644-2.765-1.8724-5.1557-2.4243-.542-.1252-1.0317-.2191-1.4704-.2819-.4387-.0629-.8532-.1211-1.245-.1724l-2.3652,10.2457-1.5602,6.7576-3.1835,13.7893-7.4578-1.722,8.5941-37.2233c1.7092.0115,3.4492.1457,5.22.4009,1.7695.2562,3.3405.5419,4.7116.8579ZM292.1611,556.5185c-.2415-1.3688-.5205-2.778-.8371-4.2281-.3166-1.4505-.6252-2.8995-.9243-4.3486l-13.197-1.1539c-.5474,1.374-1.1028,2.7481-1.6649,4.121-.5648,1.3731-1.084,2.7131-1.5589,4.0189l-7.9179-.6928c1.634-4.0498,3.1768-7.7889,4.6257-11.2178,1.4489-3.4293,2.8562-6.6565,4.2206-9.6813,1.3644-3.0248,2.6993-5.8935,4.0033-8.6054,1.304-2.7114,2.6442-5.3553,4.018-7.9305l7.2834.6378c.8734,2.7707,1.7253,5.6063,2.5544,8.5054.8304,2.8985,1.6555,5.9558,2.4738,9.1714.8184,3.2161,1.6434,6.6386,2.4752,10.2666.8318,3.6291,1.7011,7.5793,2.608,11.8509,0,0-8.1621-.7137-8.1621-.7137ZM285.6331,525.8522c-.2106.5435-.5219,1.2833-.9324,2.221-.4105.937-.8814,2.0187-1.4167,3.2449-.5339,1.2258-1.1202,2.5784-1.7588,4.0572-.6386,1.4789-1.2906,3.0311-1.9587,4.6573l9.6284.8422c-.3743-1.7173-.7405-3.3588-1.0961-4.9246-.3555-1.5657-.6976-2.9991-1.0263-4.3008-.33-1.3012-.6158-2.4494-.8572-3.4435-.2415-.9946-.4347-1.7787-.5823-2.3535ZM322.7771,524.802c-3.5632.1248-6.0974,1.3416-7.604,3.652-1.5079,2.3095-2.1921,5.4214-2.0553,9.334.0657,1.9007.322,3.6175.7687,5.1503.4454,1.5329,1.0813,2.8451,1.905,3.9351.8224,1.0906,1.8339,1.9227,3.032,2.4967,1.198.5738,2.5812.8338,4.1508.7786.8492-.0292,1.5777-.0738,2.18-.132.6037-.0586,1.1323-.1515,1.5857-.2793l-.4695-13.4718,7.6483-.2672.6694,19.174c-.9002.4418-2.3558.9306-4.3668,1.4673-2.0097.5366-4.5023.8569-7.4779.9606-2.549.0891-4.878-.2772-6.9842-1.0994-2.1076-.8212-3.9268-2.0637-5.4561-3.7265-1.5321-1.6629-2.7408-3.7292-3.6289-6.1979-.8881-2.4689-1.3885-5.3055-1.4999-8.5106-.114-3.2423.2281-6.1272,1.0223-8.6553.7955-2.5274,1.9318-4.684,3.4076-6.4709,1.4757-1.7864,3.2359-3.1631,5.2804-4.13,2.0445-.9669,4.2434-1.4914,6.5965-1.5738,1.6032-.0561,3.0521.0148,4.3534.2118,1.3.1975,2.4202.438,3.3633.722.9431.2841,1.7226.5838,2.3383.8978.6171.3143,1.0585.5602,1.3268.7373l-1.9627,7.0642c-1.0679-.5969-2.2887-1.1046-3.6625-1.5228-1.3724-.4183-2.8589-.6001-4.4607-.544ZM357.2929,553.0918c-2.3518.4145-4.4473.3962-6.2879-.0561-1.8393-.4512-3.4331-1.2498-4.7813-2.3934-1.3483-1.145-2.451-2.5977-3.3083-4.3585-.8599-1.7603-1.4865-3.7611-1.8809-6.001l-4.187-23.7409,7.5383-1.3296,4.0596,23.0252c.2723,1.5423.6574,2.8283,1.1538,3.8575.4964,1.0293,1.0706,1.8369,1.7226,2.4227.6507.5853,1.3818.9584,2.1894,1.1189.809.1603,1.6649.1609,2.5664.002,1.8366-.3239,3.213-1.2294,4.1294-2.7167.9176-1.4867,1.1041-3.7721.5594-6.8572l-4.0596-23.0247,7.5369-1.329,4.187,23.7405c.3944,2.2403.483,4.3448.267,6.3148-.2173,1.9694-.7714,3.7234-1.6635,5.263-.8908,1.5386-2.1411,2.8288-3.751,3.8702-1.6099,1.0413-3.6075,1.7718-5.9901,2.1921ZM401.9846,539.3501c-.7768-1.1524-1.6045-2.3263-2.4846-3.5227-.8787-1.1959-1.7494-2.3943-2.6134-3.5959-3.6128,2.3876-7.7261,3.9236-12.5249,4.3129.059,1.4784.1114,2.9594.1556,4.4429.0429,1.4836.114,2.9184.2106,4.3051l-7.5155,2.5872c-.1543-4.3637-.2656-8.4073-.3367-12.1291-.0711-3.7223-.0979-7.2423-.0819-10.5611.0161-3.3184.0684-6.4815.157-9.4896.0885-3.0081.2361-5.9678.4454-8.8789l6.9118-2.3798c1.9252,2.1764,3.857,4.4199,5.7942,6.7304,1.9372,2.3106,3.9335,4.7683,5.9901,7.3734,2.0553,2.6045,4.2018,5.3957,6.4368,8.3722,2.2364,2.9772,4.6365,6.2316,7.2029,9.7653l-7.7476,2.6678h0ZM383.5488,513.9898c.0282.5822.0443,1.385.051,2.408.0067,1.0235.0148,2.2037.0255,3.5405.0107,1.3379.0255,2.8115.0443,4.4225.0174,1.6104.0536,3.2941.1046,5.0513,3.4183.0079,6.469-1.0313,9.1388-3.1469-1.0411-1.4166-2.0419-2.7675-3.0051-4.0536-.9606-1.286-1.8567-2.4561-2.6872-3.5112-.8304-1.0549-1.5576-1.9877-2.1827-2.7973-.6252-.8107-1.1216-1.4485-1.4892-1.9133ZM415.8779,507.8908c-.0295-2.9823-.118-5.9338-.2629-8.8549-.1462-2.9215-.3864-5.8133-.7231-8.6746l7.4511-3.9623c.3153,4.5629.5111,9.041.5863,13.4346.0765,4.394.0604,8.858-.047,13.3926l6.9587,13.087-6.7588,3.5935-6.905-12.9887c-3.8194-2.4457-7.5463-4.9418-11.178-7.4876-3.6316-2.5448-7.2512-5.2243-10.8573-8.0364l7.8401-4.1693c2.1854,1.8793,4.4325,3.7035,6.7441,5.4732,2.3115,1.7698,4.6955,3.5002,7.1519,5.1928" inkscape:connector-curvature="0"/>
      </g>
    </g>
  </g>

</svg>