<svg width="500" height="340" xmlns="http://www.w3.org/2000/svg"><path fill="#d7002c" d="M116.917 56.172a136.173 136.173 0 0 1 35.063-4.585V40.995c-12.77 0-25.195 1.683-37.078 4.787l-.02-.058c-.502.13-.984.3-1.48.45C56.706 61.604 12.781 110.096 5 170.026h39.125c2.224-9.972 6.196-19.18 10.827-27.333h11.674v-10.599l-17.668-.006c-5.08 8.041-9.744 17.25-12.959 27.366H17.6c8.76-39.51 34.658-72.53 69.153-91.249-3.11 6.046-4.865 12.855-4.865 20.003a43.55 43.55 0 0 0 8.81 26.31v44.936h-26.29v10.598h36.89v-45.497a43.43 43.43 0 0 0 24.28 7.396h26.402v-10.598h-26.401c-18.249 0-33.093-14.87-33.093-33.145 0-14.968 10.018-28.038 24.431-32.036zm137.301 26.792H125.442v10.598h26.564c18.287 0 33.15 14.818 33.15 33.04 0 18.269-14.863 33.14-33.15 33.14h-10.631v10.597h10.63c8.531 0 16.501-2.465 23.245-6.704v35.101h10.592v-44.44c6.19-7.547 9.92-17.193 9.92-27.693 0-13.2-5.916-25.038-15.223-33.04h73.68V82.963zm-45.64 48.987h41.368v-10.598h-41.369v10.598zm-.685 22.233v44.552h10.598v-33.953h17.55v-10.599h-28.148M88.592 209.171c-24.092 0-43.684 19.58-43.684 43.639 0 24.118 19.592 43.73 43.684 43.73h26.65v-10.592h-26.65c-18.248 0-33.092-14.863-33.092-33.138 0-18.216 14.844-33.04 33.092-33.04h12.699V209.17H88.592zm129.899 10.755v-10.598h-77.116v46.71a43.57 43.57 0 0 0-25.873-8.478h-24.92v10.598h24.92c18.281 0 33.151 14.824 33.151 33.034 0 18.268-14.87 33.138-33.15 33.138v10.598c24.124 0 43.749-19.624 43.749-43.736 0-8.883-2.687-17.153-7.272-24.053v-47.213h66.51zm-42.028 38.115h38.056v-10.599h-38.056v10.599zm0 26.087V335h10.598v-40.273h16.749v-10.599h-27.347zm152.64-80.787a605.929 605.929 0 0 1-2.869 4.167c-9.848 14.172-23.062 30.393-38.323 46.332-1.663 1.735-3.294 3.594-4.924 5.485 8.126-15.378 13.605-32.238 15.933-49.886h-39.439c-2.824 14.837-8.993 28.905-17.909 41.134v-41.226h-10.598v68.925l9.105-9.385c13.324-13.749 22.885-30.68 27.855-48.961h18.385c-8.882 39.973-35.336 74.39-72.198 93.069l-.933.47v11.759c.816-.405.874-.437.933-.464a149.37 149.37 0 0 0 15.033-8.054c.3-.17.62-.372.979-.594.026-.013.052-.039.078-.052 2.25-1.402 4.448-2.87 6.613-4.39 42.55-28.787 76.647-67.17 98.326-98.416a448.524 448.524 0 0 0 4.187-6.157l-10.233-3.756"/><path fill="#d7002c" d="M494.912 258.947c-.026-.274-.045-.548-.071-.822-1.735-18.34-17.858-32.075-36.328-30.77a33.835 33.835 0 0 0-20.883 9.117l7.976 7.096a23.318 23.318 0 0 1 13.65-5.648c12.92-.913 24.171 8.857 25.084 21.777a23.356 23.356 0 0 1-5.68 17.049c-4.122 4.741-9.83 7.598-16.09 8.041a23.32 23.32 0 0 1-13.123-2.948l-.097-.058c-.75-.43-1.474-.92-2.185-1.435-2.4-1.8-4.93-3.985-7.553-6.45-23.12-53.95-46.971-95.045-70.463-121.42 9.463-19.273 15.43-34.939 18.614-44.148l-9.614-4.709c-2.798 8.107-8.224 22.586-16.846 40.58-10.461-10.311-20.831-17.648-31.012-21.81l-4.018 9.81c21.399 8.746 54.909 37.847 95.045 125.013-3.985-5.452-8.159-12.144-12.307-16.97-11.557-13.416-24.653-28.625-38.708-42.758-10.937-10.996-22.983-16.677-34.632-22.162-8.733-4.115-16.97-8.002-24.627-13.97l-.137-.104-.137-.098a24.673 24.673 0 0 1-10.826-20.505c.02-6.979 3.554-13.312 7.298-20.016l4.892-8.792c6.032-10.84 8.517-15.34 9.437-17.811 1.604-4.064 2.387-8.473 2.276-12.98-.476-19.246-14.511-32.655-34.136-32.596h-56.97c17.89-9.072 44.448-17.564 72.33-16.357 16.35.71 24.196 4.415 30.496 7.39 4.278 2.021 8.316 3.919 13.442 3.919 11.237 0 14.772-7.944 16.664-12.216l.62-1.356.097-.183a25.057 25.057 0 0 1 2.276-4.05c3.763-5.433 9.43-9.079 15.933-10.26 6.503-1.18 13.083.242 18.516 4.005 5.44 3.77 9.085 9.425 10.26 15.933 1.186 6.503-.242 13.084-4.005 18.516-4.194 6.053-10.05 10.031-16.07 10.918-4.794.711-9.36-.541-13.233-3.62-2.988-2.367-4.762-6.17-4.625-9.92.085-2.302.894-4.467 2.322-6.443l-8.837-5.818c-2.485 3.568-3.913 7.592-4.076 11.877-.255 7.154 2.967 14.113 8.622 18.607 6.137 4.872 13.729 6.933 21.372 5.805 1.892-.28 3.77-.764 5.603-1.416 11.309 10.475 27.014 30.66 32.962 42.498 1.78 3.352 2.335 6.991 1.643 10.624a15.946 15.946 0 0 1-6.743 10.272 15.953 15.953 0 0 1-12.04 2.498c-3.71-.704-6.894-2.661-9.215-5.394l-8.446 6.477a26.53 26.53 0 0 0 15.685 9.326c6.998 1.33 14.087-.137 19.977-4.141 5.89-4.011 9.861-10.064 11.198-17.062a26.771 26.771 0 0 0-2.648-17.472c-6.541-13.012-21.627-32.056-32.714-43.045a39.602 39.602 0 0 0 7.97-8.538c5.38-7.76 7.415-17.153 5.733-26.44-1.69-9.294-6.894-17.368-14.662-22.749-7.761-5.38-17.146-7.415-26.44-5.726-9.294 1.683-17.375 6.887-22.755 14.655a35.985 35.985 0 0 0-3.235 5.752c-.013-.006-.724 1.566-.724 1.566-1.878 4.213-2.798 5.928-6.985 5.928-2.746 0-5.198-1.16-8.916-2.909-6.783-3.208-16.076-7.591-34.56-8.393-38.688-1.683-75.23 14.146-92.312 26.238v11.302h76.51c13.741-.039 23.192 8.91 23.518 22.266a22.691 22.691 0 0 1-1.572 8.922c-.717 1.911-4.109 8.01-8.805 16.442l-4.885 8.785c-4.239 7.585-8.615 15.431-8.641 25.156v.097a35.258 35.258 0 0 0 15.365 29.121c8.531 6.62 17.636 10.918 26.44 15.066 11.323 5.341 22.012 10.376 31.639 20.049 13.787 13.865 26.192 28.272 38.186 42.203 14.681 17.049 27.445 32.343 39.745 41.63 6.509 4.813 14.427 7.142 22.592 6.568 9.085-.646 17.381-4.787 23.349-11.661 5.961-6.881 8.896-15.666 8.25-24.745M304.81 171.631c-.039-.02-.065-.046-.098-.072-.058-.046-.117-.078-.182-.124l.28.196M5 186.762h9.73v1.82H10.91v10.2H8.802v-10.2H5v-1.82zm12.105 0h2.96l3.32 9.41h.033l3.228-9.41h2.935v12.02H27.58v-9.275h-.039l-3.333 9.275h-1.735l-3.326-9.275h-.032v9.275h-2.01v-12.02"/></svg>